<?xml version="1.0" encoding="UTF-8" standalone="no"?>
<!-- Generator: Adobe Illustrator 26.3.1, SVG Export Plug-In . SVG Version: 6.00 Build 0)  -->

<svg
   version="1.1"
   id="Layer_2_00000098929901989805190940000005256387118696024980_"
   x="0px"
   y="0px"
   viewBox="0 0 128 128"
   style="enable-background:new 0 0 128 128;"
   xml:space="preserve"
   sodipodi:docname="bicep_mirror.svg"
   inkscape:version="1.4.3 (0d15f75042, 2025-12-25)"
   xmlns:inkscape="http://www.inkscape.org/namespaces/inkscape"
   xmlns:sodipodi="http://sodipodi.sourceforge.net/DTD/sodipodi-0.dtd"
   xmlns:xlink="http://www.w3.org/1999/xlink"
   xmlns="http://www.w3.org/2000/svg"
   xmlns:svg="http://www.w3.org/2000/svg"><defs
   id="defs11" /><sodipodi:namedview
   id="namedview11"
   pagecolor="#505050"
   bordercolor="#ffffff"
   borderopacity="1"
   inkscape:showpageshadow="0"
   inkscape:pageopacity="0"
   inkscape:pagecheckerboard="1"
   inkscape:deskcolor="#505050"
   inkscape:zoom="9.015625"
   inkscape:cx="64"
   inkscape:cy="83.854419"
   inkscape:window-width="2560"
   inkscape:window-height="1372"
   inkscape:window-x="0"
   inkscape:window-y="0"
   inkscape:window-maximized="1"
   inkscape:current-layer="Layer_2_00000098929901989805190940000005256387118696024980_" />
<path
   style="fill:#ffca28"
   d="m 48.150357,28.9 c -1.9,2 -2.3,4.5 -1.5,5.9 0.9,1.6 2,2.4 3.7,2.4 0.7,0 4,-0.1 5.8,1 2,1.2 6.3,3.3 11.3,2.8 3.3,-0.3 7.6,-3.6 9.6,-1.2 1,1.2 2.6,5.7 2.7,12 0.1,4.4 -0.6,19.9 1.4,29.8 0.1,0.7 -0.5,1.4 -1.2,1.4 -1.9,-0.1 -4.1,-0.9 -6,-5.5 -10.1,-24.7 -51.5,-23.1 -57.6,4.7 -2.3,10.2 -5.4,31.2 14.7,37.2 14.9,4.4 35.9,0.8 47.1,-0.1 7,-0.6 32.400003,-1.7 34.600003,-15.9 0.7,-4.1 -0.3,-11.2 -1.6,-20.6 -0.4,-3.2 -1.4,-12.2 -4.7,-22.1 -2.8,-8 -6.800003,-15.4 -11.800003,-23.7 -1.8,-3 -4,-7.9 -9.8,-13.9 -8.1,-8.4 -18,-14.2 -23.7,-16.8 -4.2,-1.9 -6.6,1.4 -7.7,4 -0.9,2.2 -6.1,9.2 -8.5,12.5 -0.7,1 -1.2,3.2 0.3,4.2 1.4,1.1 2.9,1.9 2.9,1.9 z"
   id="path1" />
<g
   id="g7"
   transform="matrix(-1,0,0,1,127.65036,0)">
	<g
   id="g6">
		<defs
   id="defs1">
			<path
   id="SVGID_1_"
   d="m 79.5,28.9 c 1.9,2 2.3,4.5 1.5,5.9 -0.9,1.6 -2,2.4 -3.7,2.4 -0.7,0 -4,-0.1 -5.8,1 -2,1.2 -6.3,3.3 -11.3,2.8 -3.3,-0.3 -7.6,-3.6 -9.6,-1.2 -1,1.2 -2.6,5.7 -2.7,12 -0.1,4.4 0.6,19.9 -1.4,29.8 -0.1,0.7 0.5,1.4 1.2,1.4 1.9,-0.1 4.1,-0.9 6,-5.5 10.1,-24.7 51.5,-23.1 57.6,4.7 2.3,10.2 5.4,31.2 -14.7,37.2 -14.9,4.4 -35.9,0.8 -47.1,-0.1 -7,-0.6 -32.4,-1.7 -34.6,-15.9 -0.7,-4.1 0.3,-11.2 1.6,-20.6 0.4,-3.2 1.4,-12.2 4.7,-22.1 C 24,52.7 28,45.3 33,37 c 1.8,-3 4,-7.9 9.8,-13.9 8.1,-8.4 18,-14.2 23.7,-16.8 4.2,-1.9 6.6,1.4 7.7,4 0.9,2.2 6.1,9.2 8.5,12.5 0.7,1 1.2,3.2 -0.3,4.2 -1.4,1.1 -2.9,1.9 -2.9,1.9 z" />
		</defs>
		<clipPath
   id="SVGID_00000183245058035239889480000002627788755573784960_">
			<use
   xlink:href="#SVGID_1_"
   style="overflow:visible"
   id="use1" />
		</clipPath>
		<g
   clip-path="url(#SVGID_00000183245058035239889480000002627788755573784960_)"
   id="g5">
			<path
   style="fill:#faa700"
   d="m 109.6,73.4 c -2.6,-0.3 -10.3,-1.5 -11,6.3 -0.4,4.3 0.7,14.5 -6.5,20.2 -7.2,5.7 -15.9,9 -28.1,3 -1.1,-0.6 -1.5,-0.2 -0.5,1 1,1.1 5.1,4.7 8.2,6.4 2.4,1.3 1.6,4.2 -1.4,4.6 -9.6,1.2 -16.1,-2.7 -24.4,-2.9 -18.2,-0.5 -20.1,-0.2 -23.8,-2.7 0,0 -5,-3.3 -4.8,-8.3 C 18.1,73.5 25.8,54.9 34.2,41 38.3,34.2 44.5,20.6 66.9,7.6 68,7 69.9,6.5 71.5,9 c 2.2,3.5 3.4,5.1 5.1,7.7 1.8,2.6 4.5,1.3 4.5,1.3 L 70.9,1.5 44.3,16.9 16.5,56.5 l -5.8,51.9 13.4,12.3 72.1,3.8 20.4,-13.5 V 86.4 Z"
   id="path2" />
			<path
   style="fill:#faa700"
   d="m 58.2,39.7 c 2.5,0.1 7.7,-1.1 10.2,-3 2.5,-1.9 5.3,-1.4 6.3,-1.3 1,0.1 3.3,-0.3 3.1,-2.9 -0.2,-2.6 -0.3,-3.8 -0.3,-3.8 l 5.8,0.8 1.4,11 -22.7,8.3 z"
   id="path3" />
			<path
   style="fill:#faa700"
   d="m 50.1,39.1 c -1.3,1 -5.8,4.3 -5.6,13.2 0.6,27.8 -5.6,25.4 -5.6,31.6 0,2.8 8.7,0 8.7,0 l 3,-15.5 z"
   id="path4" />
			<path
   style="fill:#faa700"
   d="m 96.9,61.6 c -0.5,0.8 -0.9,2.7 -4,2.1 -3.1,-0.6 -8.7,-3.3 -19.8,-0.3 -4.2,1.1 -4.2,-1.8 -4.2,-1.8 l 15.8,-8.7 z"
   id="path5" />
		</g>
	</g>
</g>
<g
   id="g11"
   transform="matrix(-1,0,0,1,127.65036,0)">
	<g
   id="g10">
		<defs
   id="defs7">
			<path
   id="SVGID_00000058556680189966061950000017401765446221836930_"
   d="m 79.5,28.9 c 1.9,2 2.3,4.5 1.5,5.9 -0.9,1.6 -2,2.4 -3.7,2.4 -0.7,0 -4,-0.1 -5.8,1 -2,1.2 -6.3,3.3 -11.3,2.8 -3.3,-0.3 -7.6,-3.6 -9.6,-1.2 -1,1.2 -2.6,5.7 -2.7,12 -0.1,4.4 0.6,19.9 -1.4,29.8 -0.1,0.7 0.5,1.4 1.2,1.4 1.9,-0.1 4.1,-0.9 6,-5.5 10.1,-24.7 51.5,-23.1 57.6,4.7 2.3,10.2 5.4,31.2 -14.7,37.2 -14.9,4.4 -35.9,0.8 -47.1,-0.1 -7,-0.6 -32.4,-1.7 -34.6,-15.9 -0.7,-4.1 0.3,-11.2 1.6,-20.6 0.4,-3.2 1.4,-12.2 4.7,-22.1 C 24,52.7 28,45.3 33,37 c 1.8,-3 4,-7.9 9.8,-13.9 8.1,-8.4 18,-14.2 23.7,-16.8 4.2,-1.9 6.6,1.4 7.7,4 0.9,2.2 6.1,9.2 8.5,12.5 0.7,1 1.2,3.2 -0.3,4.2 -1.4,1.1 -2.9,1.9 -2.9,1.9 z" />
		</defs>
		<clipPath
   id="SVGID_00000157275148494609592530000004506087046205467580_">
			<use
   xlink:href="#SVGID_00000058556680189966061950000017401765446221836930_"
   style="overflow:visible"
   id="use7" />
		</clipPath>
		<g
   clip-path="url(#SVGID_00000157275148494609592530000004506087046205467580_)"
   id="g9">
			<path
   style="fill:#b55e19"
   d="m 98.4,84 c -0.9,17.5 -20.6,25.8 -34.8,17 -1.5,-0.9 -2.7,0.5 -1.4,1.5 12.9,10.5 27.6,5.6 34.3,-2.7 3.6,-4.5 5.2,-10.8 4.4,-15.8 -0.3,-1.7 -2.4,-1.5 -2.5,0 z"
   id="path7" />
			<path
   style="fill:#b55e19"
   d="m 76.8,59.2 c -0.1,0.8 -0.4,3.7 -3.6,4.3 -1.2,0.2 -12,3.9 -16.9,17 -1.7,4.6 -6.3,5.5 -8.1,5.7 -1.8,0.1 -9.6,-1.8 -12.5,5.8 -0.5,1.2 -1.7,0.6 -1.5,-0.2 0.5,-3.1 1.6,-7.9 8.5,-8.8 0.8,-0.1 1.5,-0.6 1.7,-1.4 1.5,-3.9 2.5,-7.7 4.1,-8.2 1.7,-0.5 23,-15.4 23,-15.4 z"
   id="path8" />
			<path
   style="fill:#b55e19"
   d="m 48.9,48.8 c -0.7,-1 -1.8,-2.4 -1.3,-4.6 0.5,-2.2 1.1,-4.3 1.3,-4.8 0.2,-0.5 0.5,-1.6 -0.5,-2.8 -0.9,-1 -0.2,-2.5 1.2,-1.6 11.3,7.4 18.1,3.5 20.5,2.1 1.3,-0.8 5.2,-0.8 7,-0.9 4.3,-0.1 3.8,-6.1 0.5,-6.8 -3.3,-0.7 -5.3,1.3 -8,0.2 -1.6,-0.6 -3.2,-2 -5.7,-2.3 -1.1,-0.1 -0.7,-1 -0.2,-1 1,0 1.9,0.1 2.7,0.2 -0.5,-5.5 3.3,-7.7 3.3,-13.7 0,-1 0.7,-0.6 0.8,-0.3 0.3,0.9 1.1,3.8 -0.1,6.9 3.6,2.9 6.1,1.9 8.2,3.6 0.5,0.5 0.2,0.9 -0.2,0.8 -2,-0.7 -3.1,-0.7 -3.8,-0.7 -0.5,0 -1.3,0.2 -1.1,0.8 0.2,0.6 0.7,1.3 0.9,1.6 0.5,0.6 -0.3,1.5 -0.9,0.7 -0.3,-0.4 -1.4,-3.1 -2.8,-3.3 -0.7,-0.1 -1.5,-0.1 -1.9,1 -1.1,3.2 0.2,3.6 2.1,3.8 1.5,0.1 3,-0.5 3.9,-0.5 1.4,0 2.9,0.4 3.5,0.9 0.8,-0.6 2.2,-1.6 2.9,-2.1 0.5,-0.4 0.8,-1.3 0.3,-2 C 81,23.2 75.5,14.3 75.2,13.6 74.8,13 74.6,11.3 75.4,10.8 75.6,10.2 87,25.4 87,25.4 l -6.2,13.9 z"
   id="path9" />
		</g>
	</g>
</g>
</svg>
