<?xml version="1.0" encoding="UTF-8" standalone="no"?>
<!-- Generator: Adobe Illustrator 24.1.2, SVG Export Plug-In . SVG Version: 6.00 Build 0)  -->

<svg
   version="1.1"
   id="Layer_3"
   x="0px"
   y="0px"
   viewBox="0 0 128 128"
   style="enable-background:new 0 0 128 128;"
   xml:space="preserve"
   sodipodi:docname="flame-innersvg"
   inkscape:version="1.4.3 (0d15f75042, 2025-12-25)"
   xmlns:inkscape="http://www.inkscape.org/namespaces/inkscape"
   xmlns:sodipodi="http://sodipodi.sourceforge.net/DTD/sodipodi-0.dtd"
   xmlns="http://www.w3.org/2000/svg"
   xmlns:svg="http://www.w3.org/2000/svg"><defs
   id="defs13"><radialGradient
     id="SVGID_2_-2"
     cx="64.921097"
     cy="54.062099"
     r="73.859901"
     gradientTransform="matrix(-0.0101,0.9999,0.7525,0.00760378,26.283275,-11.217157)"
     gradientUnits="userSpaceOnUse">
			<stop
   offset="0.2141"
   style="stop-color:#FFF176"
   id="stop4-9" />
			<stop
   offset="0.3275"
   style="stop-color:#FFF27D"
   id="stop5-3" />
			<stop
   offset="0.4868"
   style="stop-color:#FFF48F"
   id="stop6-1" />
			<stop
   offset="0.6722"
   style="stop-color:#FFF7AD"
   id="stop7-9" />
			<stop
   offset="0.7931"
   style="stop-color:#FFF9C4"
   id="stop8-4" />
			<stop
   offset="0.8221"
   style="stop-color:#FFF8BD;stop-opacity:0.804"
   id="stop9-7" />
			<stop
   offset="0.8627"
   style="stop-color:#FFF6AB;stop-opacity:0.529"
   id="stop10-8" />
			<stop
   offset="0.9101"
   style="stop-color:#FFF38D;stop-opacity:0.2088"
   id="stop11-4" />
			<stop
   offset="0.9409"
   style="stop-color:#FFF176;stop-opacity:0"
   id="stop12-5" />
		</radialGradient></defs><sodipodi:namedview
   id="namedview13"
   pagecolor="#505050"
   bordercolor="#ffffff"
   borderopacity="1"
   inkscape:showpageshadow="0"
   inkscape:pageopacity="0"
   inkscape:pagecheckerboard="1"
   inkscape:deskcolor="#505050"
   inkscape:zoom="9.015625"
   inkscape:cx="64.055459"
   inkscape:cy="64"
   inkscape:window-width="2560"
   inkscape:window-height="1372"
   inkscape:window-x="0"
   inkscape:window-y="0"
   inkscape:window-maximized="1"
   inkscape:current-layer="Layer_3" />

<path
   style="fill:url(#SVGID_2_-2)"
   d="m 76.239475,77.469643 c -9.09,-11.7 -5.02,-25.05 -2.79,-30.37 0.3,-0.7 -0.5,-1.36 -1.13,-0.93 -3.91,2.66 -11.92,8.92 -15.65,17.73 -5.05,11.91 -4.69,17.739996 -1.7,24.859996 1.8,4.29 -0.29,5.2 -1.34,5.36 -1.02,0.16 -1.96,-0.52 -2.71,-1.23 -2.15,-2.05 -3.7,-4.72 -4.44,-7.6 -0.16,-0.62 -0.97,-0.79 -1.34,-0.28 -2.8,3.87 -4.25,10.08 -4.32,14.47 -0.22,13.570001 10.99,24.570001 24.55,24.570001 17.09,0 29.54,-18.9 19.72,-34.700001 -2.85,-4.6 -5.53,-7.61 -8.85,-11.879996 z"
   id="path12-3" /></svg>
