999
"DXF R12 Output" (www.mydxf.blogspot.com)
 0 
SECTION
 2 
HEADER
 9 
$ACADVER
 1 
AC1009
 9 
$EXTMIN
 10 
 0 
 20 
 0 
 9 
$EXTMAX
 10 
 8.5 
 20 
 11 
 0 
ENDSEC
 0 
SECTION
 2 
ENTITIES
0
POLYLINE
8
Layer 1
62
7
70
0
10
0.000000
20
0.000000
66
1
0
VERTEX
8
Layer 1
10
21.034349
20
26.220251
70
0
0
VERTEX
8
Layer 1
10
21.500676
20
25.380200
70
0
0
VERTEX
8
Layer 1
10
21.431223
20
24.659212
70
0
0
VERTEX
8
Layer 1
10
21.021119
20
24.182962
70
0
0
VERTEX
8
Layer 1
10
20.452266
20
24.024212
70
0
0
VERTEX
8
Layer 1
10
19.794116
20
24.001061
70
0
0
VERTEX
8
Layer 1
10
18.917685
20
23.759629
70
0
0
VERTEX
8
Layer 1
10
17.720446
20
23.220542
70
0
0
VERTEX
8
Layer 1
10
16.878742
20
23.034093
70
0
0
VERTEX
8
Layer 1
10
15.927897
20
23.018797
70
0
0
VERTEX
8
Layer 1
10
14.528914
20
23.445437
70
0
0
VERTEX
8
Layer 1
10
13.885233
20
23.565740
70
0
0
VERTEX
8
Layer 1
10
13.387900
20
23.336297
70
0
0
VERTEX
8
Layer 1
10
12.941416
20
22.254814
70
0
0
VERTEX
8
Layer 1
10
12.673526
20
20.161301
70
0
0
VERTEX
8
Layer 1
10
12.676833
20
16.764716
70
0
0
VERTEX
8
Layer 1
10
12.580508
20
14.450028
70
0
0
VERTEX
8
Layer 1
10
12.303110
20
12.276727
70
0
0
VERTEX
8
Layer 1
10
12.382484
20
12.022066
70
0
0
VERTEX
8
Layer 1
10
12.620609
20
11.906311
70
0
0
VERTEX
8
Layer 1
10
13.010042
20
11.973697
70
0
0
VERTEX
8
Layer 1
10
13.414358
20
12.187430
70
0
0
VERTEX
8
Layer 1
10
13.818674
20
12.624406
70
0
0
VERTEX
8
Layer 1
10
14.208107
20
13.361518
70
0
0
VERTEX
8
Layer 1
10
14.801907
20
14.505329
70
0
0
VERTEX
8
Layer 1
10
15.563992
20
15.486088
70
0
0
VERTEX
8
Layer 1
10
16.468548
20
16.303834
70
0
0
VERTEX
8
Layer 1
10
17.489763
20
16.958606
70
0
0
VERTEX
8
Layer 1
10
18.601826
20
17.450442
70
0
0
VERTEX
8
Layer 1
10
19.778923
20
17.779382
70
0
0
VERTEX
8
Layer 1
10
20.995242
20
17.945463
70
0
0
VERTEX
8
Layer 1
10
22.224972
20
17.948725
70
0
0
VERTEX
8
Layer 1
10
23.442299
20
17.789207
70
0
0
VERTEX
8
Layer 1
10
24.621412
20
17.466946
70
0
0
VERTEX
8
Layer 1
10
25.736497
20
16.981983
70
0
0
VERTEX
8
Layer 1
10
26.761744
20
16.334356
70
0
0
VERTEX
8
Layer 1
10
27.671338
20
15.524102
70
0
0
VERTEX
8
Layer 1
10
28.439469
20
14.551263
70
0
0
VERTEX
8
Layer 1
10
29.040323
20
13.415875
70
0
0
VERTEX
8
Layer 1
10
29.448088
20
12.117977
70
0
0
VERTEX
8
Layer 1
10
29.844962
20
9.664797
70
0
0
VERTEX
8
Layer 1
10
29.887130
20
8.236359
70
0
0
VERTEX
8
Layer 1
10
29.725900
20
6.780015
70
0
0
VERTEX
8
Layer 1
10
29.286858
20
5.375762
70
0
0
VERTEX
8
Layer 1
10
28.495589
20
4.103593
70
0
0
VERTEX
8
Layer 1
10
27.277680
20
3.043504
70
0
0
VERTEX
8
Layer 1
10
25.558718
20
2.275490
70
0
0
VERTEX
8
Layer 1
10
24.012923
20
1.932617
70
0
0
VERTEX
8
Layer 1
10
22.365118
20
1.755005
70
0
0
VERTEX
8
Layer 1
10
18.960679
20
1.762860
70
0
0
VERTEX
8
Layer 1
10
13.096859
20
2.301948
70
0
0
VERTEX
8
Layer 1
10
10.966965
20
2.497905
70
0
0
VERTEX
8
Layer 1
10
8.043323
20
3.056010
70
0
0
VERTEX
8
Layer 1
10
6.606307
20
3.568536
70
0
0
VERTEX
8
Layer 1
10
5.357806
20
4.288801
70
0
0
VERTEX
8
Layer 1
10
4.426804
20
5.255873
70
0
0
VERTEX
8
Layer 1
10
4.120674
20
5.844169
70
0
0
VERTEX
8
Layer 1
10
3.942287
20
6.508818
70
0
0
VERTEX
8
Layer 1
10
3.955516
20
8.708164
70
0
0
VERTEX
8
Layer 1
10
4.365620
20
11.959228
70
0
0
VERTEX
8
Layer 1
10
4.699656
20
14.218105
70
0
0
VERTEX
8
Layer 1
10
5.061390
20
15.906889
70
0
0
VERTEX
8
Layer 1
10
5.609160
20
17.806512
70
0
0
VERTEX
8
Layer 1
10
6.951918
20
20.912055
70
0
0
VERTEX
8
Layer 1
10
8.731239
20
24.077129
70
0
0
VERTEX
8
Layer 1
10
9.630821
20
25.618325
70
0
0
VERTEX
8
Layer 1
10
10.338581
20
26.622087
70
0
0
VERTEX
8
Layer 1
10
11.324152
20
27.754833
70
0
0
VERTEX
8
Layer 1
10
12.995986
20
29.290241
70
0
0
VERTEX
8
Layer 1
10
14.697586
20
30.552798
70
0
0
VERTEX
8
Layer 1
10
16.280123
20
31.527621
70
0
0
VERTEX
8
Layer 1
10
17.594770
20
32.199827
70
0
0
VERTEX
8
Layer 1
10
18.340976
20
32.343281
70
0
0
VERTEX
8
Layer 1
10
18.920992
20
32.117145
70
0
0
VERTEX
8
Layer 1
10
19.347218
20
31.667767
70
0
0
VERTEX
8
Layer 1
10
19.632059
20
31.141495
70
0
0
VERTEX
8
Layer 1
10
20.607708
20
29.596992
70
0
0
VERTEX
8
Layer 1
10
21.881014
20
27.834208
70
0
0
VERTEX
8
Layer 1
10
22.059608
20
27.278583
70
0
0
VERTEX
8
Layer 1
10
22.007518
20
26.971006
70
0
0
VERTEX
8
Layer 1
10
21.801639
20
26.722959
70
0
0
VERTEX
8
Layer 1
10
21.034349
20
26.220251
70
0
0
VERTEX
8
Layer 1
10
21.034349
20
26.220251
70
0
0
SEQEND
8
Layer 1
0
POLYLINE
8
Layer 1
62
7
70
0
10
0.000000
20
0.000000
66
1
0
VERTEX
8
Layer 1
10
28.998297
20
14.446308
70
0
0
VERTEX
8
Layer 1
10
28.279375
20
14.509560
70
0
0
VERTEX
8
Layer 1
10
27.354575
20
14.416542
70
0
0
VERTEX
8
Layer 1
10
26.908763
20
14.234693
70
0
0
VERTEX
8
Layer 1
10
26.524032
20
13.921689
70
0
0
VERTEX
8
Layer 1
10
26.237900
20
13.446835
70
0
0
VERTEX
8
Layer 1
10
26.087884
20
12.779435
70
0
0
VERTEX
8
Layer 1
10
26.042409
20
11.676455
70
0
0
VERTEX
8
Layer 1
10
25.902676
20
10.246053
70
0
0
VERTEX
8
Layer 1
10
25.425599
20
8.746198
70
0
0
VERTEX
8
Layer 1
10
24.984593
20
8.050841
70
0
0
VERTEX
8
Layer 1
10
24.368094
20
7.434858
70
0
0
VERTEX
8
Layer 1
10
22.856664
20
6.451354
70
0
0
VERTEX
8
Layer 1
10
21.146796
20
5.877126
70
0
0
VERTEX
8
Layer 1
10
20.201946
20
5.796976
70
0
0
VERTEX
8
Layer 1
10
19.188882
20
5.883327
70
0
0
VERTEX
8
Layer 1
10
18.101405
20
6.157574
70
0
0
VERTEX
8
Layer 1
10
16.933312
20
6.641109
70
0
0
VERTEX
8
Layer 1
10
16.658807
20
6.687411
70
0
0
VERTEX
8
Layer 1
10
16.801020
20
6.376526
70
0
0
VERTEX
8
Layer 1
10
17.677452
20
5.589392
70
0
0
VERTEX
8
Layer 1
10
18.970601
20
4.683195
70
0
0
VERTEX
8
Layer 1
10
19.292235
20
4.362802
70
0
0
VERTEX
8
Layer 1
10
19.321174
20
3.985357
70
0
0
VERTEX
8
Layer 1
10
19.082222
20
3.652562
70
0
0
VERTEX
8
Layer 1
10
18.600185
20
3.466113
70
0
0
VERTEX
8
Layer 1
10
16.828719
20
3.444616
70
0
0
VERTEX
8
Layer 1
10
15.243288
20
3.710853
70
0
0
VERTEX
8
Layer 1
10
13.722349
20
4.046542
70
0
0
VERTEX
8
Layer 1
10
12.144360
20
4.233404
70
0
0
VERTEX
8
Layer 1
10
7.557152
20
4.392154
70
0
0
VERTEX
8
Layer 1
10
6.567033
20
4.575708
70
0
0
VERTEX
8
Layer 1
10
5.847284
20
4.947778
70
0
0
VERTEX
8
Layer 1
10
5.192441
20
5.549704
70
0
0
VERTEX
8
Layer 1
10
4.753399
20
6.242581
70
0
0
VERTEX
8
Layer 1
10
4.577286
20
7.143817
70
0
0
VERTEX
8
Layer 1
10
4.739033
20
9.764119
70
0
0
VERTEX
8
Layer 1
10
5.052708
20
12.176682
70
0
0
VERTEX
8
Layer 1
10
5.499089
20
14.394528
70
0
0
VERTEX
8
Layer 1
10
6.058951
20
16.430680
70
0
0
VERTEX
8
Layer 1
10
7.442224
20
20.009992
70
0
0
VERTEX
8
Layer 1
10
9.048739
20
23.018797
70
0
0
VERTEX
8
Layer 1
10
10.024802
20
24.674921
70
0
0
VERTEX
8
Layer 1
10
11.558970
20
26.822178
70
0
0
VERTEX
8
Layer 1
10
12.644639
20
28.022620
70
0
0
VERTEX
8
Layer 1
10
14.000988
20
29.277012
70
0
0
VERTEX
8
Layer 1
10
15.671737
20
30.562410
70
0
0
VERTEX
8
Layer 1
10
17.700603
20
31.855869
70
0
0
VERTEX
8
Layer 1
10
18.259534
20
31.978239
70
0
0
VERTEX
8
Layer 1
10
18.589850
20
31.844707
70
0
0
VERTEX
8
Layer 1
10
18.917685
20
31.485453
70
0
0
VERTEX
8
Layer 1
10
20.267058
20
29.448164
70
0
0
VERTEX
8
Layer 1
10
20.654010
20
29.104206
70
0
0
VERTEX
8
Layer 1
10
21.040963
20
29.018217
70
0
0
VERTEX
8
Layer 1
10
21.457681
20
29.104206
70
0
0
VERTEX
8
Layer 1
10
18.758935
20
33.469825
70
0
0
VERTEX
8
Layer 1
10
11.721027
20
29.395247
70
0
0
VERTEX
8
Layer 1
10
4.365620
20
18.917760
70
0
0
VERTEX
8
Layer 1
10
2.831038
20
5.185903
70
0
0
VERTEX
8
Layer 1
10
6.376450
20
1.931532
70
0
0
VERTEX
8
Layer 1
10
25.452885
20
0.926116
70
0
0
VERTEX
8
Layer 1
10
30.850378
20
4.497987
70
0
0
VERTEX
8
Layer 1
10
30.850378
20
11.006729
70
0
0
VERTEX
8
Layer 1
10
28.998297
20
14.446308
70
0
0
VERTEX
8
Layer 1
10
28.998297
20
14.446308
70
0
0
SEQEND
8
Layer 1
0
POLYLINE
8
Layer 1
62
7
70
0
10
0.000000
20
0.000000
66
1
0
VERTEX
8
Layer 1
10
15.398731
20
23.362755
70
0
0
VERTEX
8
Layer 1
10
16.748104
20
23.561192
70
0
0
VERTEX
8
Layer 1
10
18.097477
20
24.156504
70
0
0
VERTEX
8
Layer 1
10
18.599771
20
24.426048
70
0
0
VERTEX
8
Layer 1
10
19.079742
20
24.526920
70
0
0
VERTEX
8
Layer 1
10
19.764350
20
24.500462
70
0
0
VERTEX
8
Layer 1
10
20.293516
20
24.616217
70
0
0
VERTEX
8
Layer 1
10
20.515931
20
24.853928
70
0
0
VERTEX
8
Layer 1
10
20.584557
20
25.267753
70
0
0
VERTEX
8
Layer 1
10
20.505183
20
26.273168
70
0
0
VERTEX
8
Layer 1
10
22.039764
20
26.061501
70
0
0
VERTEX
8
Layer 1
10
22.410180
20
23.151089
70
0
0
VERTEX
8
Layer 1
10
16.404146
20
20.955050
70
0
0
VERTEX
8
Layer 1
10
15.398731
20
23.362755
70
0
0
VERTEX
8
Layer 1
10
15.398731
20
23.362755
70
0
0
SEQEND
8
Layer 1
0
POLYLINE
8
Layer 1
62
7
70
0
10
0.000000
20
0.000000
66
1
0
VERTEX
8
Layer 1
10
13.255608
20
23.521505
70
0
0
VERTEX
8
Layer 1
10
12.871550
20
23.195323
70
0
0
VERTEX
8
Layer 1
10
12.365948
20
22.559084
70
0
0
VERTEX
8
Layer 1
10
11.934760
20
21.530931
70
0
0
VERTEX
8
Layer 1
10
11.773944
20
20.029009
70
0
0
VERTEX
8
Layer 1
10
11.755857
20
17.625231
70
0
0
VERTEX
8
Layer 1
10
11.609406
20
15.850251
70
0
0
VERTEX
8
Layer 1
10
11.374899
20
14.583767
70
0
0
VERTEX
8
Layer 1
10
11.092642
20
13.705475
70
0
0
VERTEX
8
Layer 1
10
10.546113
20
12.632261
70
0
0
VERTEX
8
Layer 1
10
10.362455
20
12.196732
70
0
0
VERTEX
8
Layer 1
10
10.292279
20
11.668186
70
0
0
VERTEX
8
Layer 1
10
10.391187
20
11.455486
70
0
0
VERTEX
8
Layer 1
10
10.651946
20
11.355648
70
0
0
VERTEX
8
Layer 1
10
11.443215
20
11.390374
70
0
0
VERTEX
8
Layer 1
10
12.594151
20
11.668186
70
0
0
VERTEX
8
Layer 1
10
13.387900
20
15.769223
70
0
0
VERTEX
8
Layer 1
10
13.255608
20
23.521505
70
0
0
VERTEX
8
Layer 1
10
13.255608
20
23.521505
70
0
0
SEQEND
8
Layer 1
0
POLYLINE
8
Layer 1
62
7
70
0
10
0.000000
20
0.000000
66
1
0
VERTEX
8
Layer 1
10
25.638093
20
17.568387
70
0
0
VERTEX
8
Layer 1
10
25.366895
20
17.151669
70
0
0
VERTEX
8
Layer 1
10
25.072547
20
17.002841
70
0
0
VERTEX
8
Layer 1
10
24.579761
20
17.012763
70
0
0
VERTEX
8
Layer 1
10
22.754138
20
17.409637
70
0
0
VERTEX
8
Layer 1
10
21.283222
20
17.436923
70
0
0
VERTEX
8
Layer 1
10
19.341017
20
17.092138
70
0
0
VERTEX
8
Layer 1
10
18.698577
20
17.043769
70
0
0
VERTEX
8
Layer 1
10
18.368675
20
17.221122
70
0
0
VERTEX
8
Layer 1
10
18.229769
20
17.568387
70
0
0
VERTEX
8
Layer 1
10
22.410180
20
19.870259
70
0
0
VERTEX
8
Layer 1
10
25.638093
20
17.568387
70
0
0
VERTEX
8
Layer 1
10
25.638093
20
17.568387
70
0
0
SEQEND
8
Layer 1
0
POLYLINE
8
Layer 1
62
7
70
0
10
0.000000
20
0.000000
66
1
0
VERTEX
8
Layer 1
10
26.034967
20
11.641728
70
0
0
VERTEX
8
Layer 1
10
25.725064
20
10.023586
70
0
0
VERTEX
8
Layer 1
10
25.024177
20
8.658141
70
0
0
VERTEX
8
Layer 1
10
24.007652
20
7.569889
70
0
0
VERTEX
8
Layer 1
10
22.750831
20
6.783323
70
0
0
VERTEX
8
Layer 1
10
21.329059
20
6.322938
70
0
0
VERTEX
8
Layer 1
10
19.817680
20
6.213229
70
0
0
VERTEX
8
Layer 1
10
18.292039
20
6.478690
70
0
0
VERTEX
8
Layer 1
10
16.827479
20
7.143817
70
0
0
VERTEX
8
Layer 1
10
16.553801
20
7.219471
70
0
0
VERTEX
8
Layer 1
10
16.364459
20
7.133895
70
0
0
VERTEX
8
Layer 1
10
16.314022
20
6.954061
70
0
0
VERTEX
8
Layer 1
10
16.457063
20
6.746942
70
0
0
VERTEX
8
Layer 1
10
17.754243
20
5.889942
70
0
0
VERTEX
8
Layer 1
10
19.065686
20
5.377725
70
0
0
VERTEX
8
Layer 1
10
20.361005
20
5.173087
70
0
0
VERTEX
8
Layer 1
10
21.609817
20
5.238819
70
0
0
VERTEX
8
Layer 1
10
22.781733
20
5.537716
70
0
0
VERTEX
8
Layer 1
10
23.846370
20
6.032568
70
0
0
VERTEX
8
Layer 1
10
24.773340
20
6.686171
70
0
0
VERTEX
8
Layer 1
10
25.532260
20
7.461317
70
0
0
VERTEX
8
Layer 1
10
26.145761
20
8.430765
70
0
0
VERTEX
8
Layer 1
10
26.550904
20
9.501913
70
0
0
VERTEX
8
Layer 1
10
26.737766
20
10.597865
70
0
0
VERTEX
8
Layer 1
10
26.696425
20
11.641728
70
0
0
VERTEX
8
Layer 1
10
26.563306
20
11.887294
70
0
0
VERTEX
8
Layer 1
10
26.345852
20
11.959228
70
0
0
VERTEX
8
Layer 1
10
26.138320
20
11.872411
70
0
0
VERTEX
8
Layer 1
10
26.034967
20
11.641728
70
0
0
VERTEX
8
Layer 1
10
26.034967
20
11.641728
70
0
0
SEQEND
8
Layer 1
0
POLYLINE
8
Layer 1
62
7
70
0
10
0.000000
20
0.000000
66
1
0
VERTEX
8
Layer 1
10
20.319974
20
18.203386
70
0
0
VERTEX
8
Layer 1
10
20.151303
20
17.614689
70
0
0
VERTEX
8
Layer 1
10
19.869770
20
17.280653
70
0
0
VERTEX
8
Layer 1
10
19.367476
20
17.065680
70
0
0
VERTEX
8
Layer 1
10
18.717180
20
16.827968
70
0
0
VERTEX
8
Layer 1
10
17.498858
20
16.096644
70
0
0
VERTEX
8
Layer 1
10
16.096982
20
14.725360
70
0
0
VERTEX
8
Layer 1
10
15.447358
20
13.754000
70
0
0
VERTEX
8
Layer 1
10
14.896023
20
12.567768
70
0
0
VERTEX
8
Layer 1
10
14.438377
20
11.826109
70
0
0
VERTEX
8
Layer 1
10
13.834384
20
11.377145
70
0
0
VERTEX
8
Layer 1
10
12.752901
20
11.059645
70
0
0
VERTEX
8
Layer 1
10
12.143119
20
11.091478
70
0
0
VERTEX
8
Layer 1
10
11.208397
20
11.036494
70
0
0
VERTEX
8
Layer 1
10
10.219105
20
10.609441
70
0
0
VERTEX
8
Layer 1
10
9.788486
20
10.167246
70
0
0
VERTEX
8
Layer 1
10
9.445613
20
9.525064
70
0
0
VERTEX
8
Layer 1
10
9.177723
20
9.353085
70
0
0
VERTEX
8
Layer 1
10
9.048739
20
9.577981
70
0
0
VERTEX
8
Layer 1
10
9.199220
20
10.254321
70
0
0
VERTEX
8
Layer 1
10
9.538217
20
10.960427
70
0
0
VERTEX
8
Layer 1
10
10.194714
20
11.557392
70
0
0
VERTEX
8
Layer 1
10
11.297694
20
11.906311
70
0
0
VERTEX
8
Layer 1
10
11.582121
20
12.022066
70
0
0
VERTEX
8
Layer 1
10
11.747485
20
12.276727
70
0
0
VERTEX
8
Layer 1
10
12.279958
20
13.698861
70
0
0
VERTEX
8
Layer 1
10
12.539994
20
14.196608
70
0
0
VERTEX
8
Layer 1
10
12.832276
20
14.446308
70
0
0
VERTEX
8
Layer 1
10
16.043652
20
16.533206
70
0
0
VERTEX
8
Layer 1
10
18.917685
20
18.520886
70
0
0
VERTEX
8
Layer 1
10
20.319974
20
18.203386
70
0
0
VERTEX
8
Layer 1
10
20.319974
20
18.203386
70
0
0
SEQEND
8
Layer 1
0
POLYLINE
8
Layer 1
62
7
70
0
10
0.000000
20
0.000000
66
1
0
VERTEX
8
Layer 1
10
12.938109
20
20.955050
70
0
0
VERTEX
8
Layer 1
10
12.647067
20
21.444528
70
0
0
VERTEX
8
Layer 1
10
12.594151
20
22.172131
70
0
0
VERTEX
8
Layer 1
10
12.938109
20
23.442130
70
0
0
VERTEX
8
Layer 1
10
12.991025
20
23.743093
70
0
0
VERTEX
8
Layer 1
10
12.805817
20
24.182962
70
0
0
VERTEX
8
Layer 1
10
12.736364
20
24.583144
70
0
0
VERTEX
8
Layer 1
10
12.883952
20
24.677815
70
0
0
VERTEX
8
Layer 1
10
13.123317
20
24.606295
70
0
0
VERTEX
8
Layer 1
10
14.188728
20
24.005092
70
0
0
VERTEX
8
Layer 1
10
15.142829
20
23.641394
70
0
0
VERTEX
8
Layer 1
10
15.985929
20
23.472412
70
0
0
VERTEX
8
Layer 1
10
16.718338
20
23.455359
70
0
0
VERTEX
8
Layer 1
10
17.852325
20
23.705886
70
0
0
VERTEX
8
Layer 1
10
18.547268
20
24.050671
70
0
0
VERTEX
8
Layer 1
10
19.423699
20
24.239186
70
0
0
VERTEX
8
Layer 1
10
20.399349
20
24.288795
70
0
0
VERTEX
8
Layer 1
10
20.767492
20
24.366103
70
0
0
VERTEX
8
Layer 1
10
21.022773
20
24.555032
70
0
0
VERTEX
8
Layer 1
10
21.219557
20
25.128846
70
0
0
VERTEX
8
Layer 1
10
21.039309
20
25.732426
70
0
0
VERTEX
8
Layer 1
10
20.531641
20
26.087960
70
0
0
VERTEX
8
Layer 1
10
19.933022
20
26.116899
70
0
0
VERTEX
8
Layer 1
10
19.413778
20
26.021814
70
0
0
VERTEX
8
Layer 1
10
18.924299
20
25.946573
70
0
0
VERTEX
8
Layer 1
10
18.414977
20
26.035043
70
0
0
VERTEX
8
Layer 1
10
17.750212
20
26.369079
70
0
0
VERTEX
8
Layer 1
10
16.906854
20
26.643584
70
0
0
VERTEX
8
Layer 1
10
16.721646
20
26.785797
70
0
0
VERTEX
8
Layer 1
10
16.853937
20
26.908167
70
0
0
VERTEX
8
Layer 1
10
17.568311
20
26.855251
70
0
0
VERTEX
8
Layer 1
10
17.648926
20
27.812297
70
0
0
VERTEX
8
Layer 1
10
17.955264
20
28.618035
70
0
0
VERTEX
8
Layer 1
10
18.286406
20
29.448577
70
0
0
VERTEX
8
Layer 1
10
18.441435
20
30.480038
70
0
0
VERTEX
8
Layer 1
10
18.537346
20
30.648709
70
0
0
VERTEX
8
Layer 1
10
18.653101
20
30.559413
70
0
0
VERTEX
8
Layer 1
10
18.788700
20
29.864882
70
0
0
VERTEX
8
Layer 1
10
18.626643
20
28.733790
70
0
0
VERTEX
8
Layer 1
10
19.289341
20
28.324513
70
0
0
VERTEX
8
Layer 1
10
19.860261
20
28.138478
70
0
0
VERTEX
8
Layer 1
10
20.356768
20
28.011974
70
0
0
VERTEX
8
Layer 1
10
20.796224
20
27.781291
70
0
0
VERTEX
8
Layer 1
10
20.859062
20
27.615927
70
0
0
VERTEX
8
Layer 1
10
20.743307
20
27.569625
70
0
0
VERTEX
8
Layer 1
10
19.737892
20
27.754833
70
0
0
VERTEX
8
Layer 1
10
19.522918
20
27.708531
70
0
0
VERTEX
8
Layer 1
10
19.446851
20
27.543166
70
0
0
VERTEX
8
Layer 1
10
19.684975
20
27.119833
70
0
0
VERTEX
8
Layer 1
10
19.675053
20
26.888323
70
0
0
VERTEX
8
Layer 1
10
19.446851
20
26.934625
70
0
0
VERTEX
8
Layer 1
10
19.185575
20
27.391031
70
0
0
VERTEX
8
Layer 1
10
18.966880
20
27.663882
70
0
0
VERTEX
8
Layer 1
10
18.706018
20
27.807749
70
0
0
VERTEX
8
Layer 1
10
18.424899
20
27.794520
70
0
0
VERTEX
8
Layer 1
10
18.203310
20
27.543166
70
0
0
VERTEX
8
Layer 1
10
18.096650
20
27.036324
70
0
0
VERTEX
8
Layer 1
10
18.183467
20
26.742803
70
0
0
VERTEX
8
Layer 1
10
18.758935
20
26.537751
70
0
0
VERTEX
8
Layer 1
10
19.790808
20
26.670042
70
0
0
VERTEX
8
Layer 1
10
20.716849
20
26.431918
70
0
0
VERTEX
8
Layer 1
10
21.484140
20
26.987542
70
0
0
VERTEX
8
Layer 1
10
21.623046
20
27.222359
70
0
0
VERTEX
8
Layer 1
10
21.563515
20
27.516708
70
0
0
VERTEX
8
Layer 1
10
19.896642
20
30.268371
70
0
0
VERTEX
8
Layer 1
10
19.804038
20
30.648709
70
0
0
VERTEX
8
Layer 1
10
19.949558
20
31.009204
70
0
0
VERTEX
8
Layer 1
10
21.503983
20
29.137279
70
0
0
VERTEX
8
Layer 1
10
23.018721
20
27.146292
70
0
0
VERTEX
8
Layer 1
10
21.378306
20
23.468588
70
0
0
VERTEX
8
Layer 1
10
12.938109
20
20.955050
70
0
0
VERTEX
8
Layer 1
10
12.938109
20
20.955050
70
0
0
SEQEND
8
Layer 1
 0 
ENDSEC
 0 
EOF