  0
SECTION
  2
HEADER
  9
$ACADVER
  1
AC1014
  9
$HANDSEED
  5
FFFF
  9
$INSUNITS
 70
     4
  9
$MEASUREMENT
 70
     1
  0
ENDSEC
  0
SECTION
  2
TABLES
  0
TABLE
  2
VPORT
  5
8
330
0
100
AcDbSymbolTable
 70
     4
  0
VPORT
  5
2E
330
8
100
AcDbSymbolTableRecord
100
AcDbViewportTableRecord
  2
*ACTIVE
 70
     0
 10
0.0
 20
0.0
 11
1.0
 21
1.0
 12
210.0
 22
148.5
 13
0.0
 23
0.0
 14
10.0
 24
10.0
 15
10.0
 25
10.0
 16
0.0
 26
0.0
 36
1.0
 17
0.0
 27
0.0
 37
0.0
 40
341.0
 41
1.24
 42
50.0
 43
0.0
 44
0.0
 50
0.0
 51
0.0
 71
     0
 72
   100
 73
     1
 74
     3
 75
     0
 76
     0
 77
     0
 78
     0
  0
ENDTAB
  0
TABLE
  2
LTYPE
  5
5
330
0
100
AcDbSymbolTable
 70
     1
  0
LTYPE
  5
14
330
5
100
AcDbSymbolTableRecord
100
AcDbLinetypeTableRecord
  2
BYBLOCK
 70
     0
  3

 72
    65
 73
     0
 40
0.0
  0
LTYPE
  5
15
330
5
100
AcDbSymbolTableRecord
100
AcDbLinetypeTableRecord
  2
BYLAYER
 70
     0
  3

 72
    65
 73
     0
 40
0.0
  0
LTYPE
  5
16
330
5
100
AcDbSymbolTableRecord
100
AcDbLinetypeTableRecord
  2
CONTINUOUS
 70
     0
  3
Solid line
 72
    65
 73
     0
 40
0.0
  0
ENDTAB
  0
TABLE
  2
LAYER
  5
2
100
AcDbSymbolTable
 70
1
  0
LAYER
  5
50
100
AcDbSymbolTableRecord
100
AcDbLayerTableRecord
  2
0
 70
0
  6
CONTINUOUS
  0
ENDTAB
  0
TABLE
  2
STYLE
  5
3
330
0
100
AcDbSymbolTable
 70
     1
  0
STYLE
  5
11
330
3
100
AcDbSymbolTableRecord
100
AcDbTextStyleTableRecord
  2
STANDARD
 70
     0
 40
0.0
 41
1.0
 50
0.0
 71
     0
 42
2.5
  3
txt
  4

  0
ENDTAB
  0
TABLE
  2
VIEW
  5
6
330
0
100
AcDbSymbolTable
 70
     0
  0
ENDTAB
  0
TABLE
  2
UCS
  5
7
330
0
100
AcDbSymbolTable
 70
     0
  0
ENDTAB
  0
TABLE
  2
APPID
  5
9
330
0
100
AcDbSymbolTable
 70
     2
  0
APPID
  5
12
330
9
100
AcDbSymbolTableRecord
100
AcDbRegAppTableRecord
  2
ACAD
 70
     0
  0
ENDTAB
  0
TABLE
  2
DIMSTYLE
  5
A
330
0
100
AcDbSymbolTable
 70
     1
  0
DIMSTYLE
105
27
330
A
100
AcDbSymbolTableRecord
100
AcDbDimStyleTableRecord
  2
ISO-25
 70
     0
  3

  4

  5

  6

  7

 40
1.0
 41
2.5
 42
0.625
 43
3.75
 44
1.25
 45
0.0
 46
0.0
 47
0.0
 48
0.0
140
2.5
141
2.5
142
0.0
143
0.03937007874016
144
1.0
145
0.0
146
1.0
147
0.625
 71
     0
 72
     0
 73
     0
 74
     0
 75
     0
 76
     0
 77
     1
 78
     8
170
     0
171
     3
172
     1
173
     0
174
     0
175
     0
176
     0
177
     0
178
     0
270
     2
271
     2
272
     2
273
     2
274
     3
340
11
275
     0
280
     0
281
     0
282
     0
283
     0
284
     8
285
     0
286
     0
287
     3
288
     0
  0
ENDTAB
  0
TABLE
  2
BLOCK_RECORD
  5
1
330
0
100
AcDbSymbolTable
 70
     1
  0
BLOCK_RECORD
  5
1F
330
1
100
AcDbSymbolTableRecord
100
AcDbBlockTableRecord
  2
*MODEL_SPACE
  0
BLOCK_RECORD
  5
1B
330
1
100
AcDbSymbolTableRecord
100
AcDbBlockTableRecord
  2
*PAPER_SPACE
  0
ENDTAB
  0
ENDSEC
  0
SECTION
  2
BLOCKS
  0
BLOCK
  5
20
330
1F
100
AcDbEntity
  8
0
100
AcDbBlockBegin
  2
*MODEL_SPACE
 70
     0
 10
0.0
 20
0.0
 30
0.0
  3
*MODEL_SPACE
  1

  0
ENDBLK
  5
21
330
1F
100
AcDbEntity
  8
0
100
AcDbBlockEnd
  0
BLOCK
  5
1C
330
1B
100
AcDbEntity
 67
     1
  8
0
100
AcDbBlockBegin
  2
*PAPER_SPACE
  1

  0
ENDBLK
  5
1D
330
1B
100
AcDbEntity
 67
     1
  8
0
100
AcDbBlockEnd
  0
ENDSEC
  0
SECTION
  2
ENTITIES
  0
SPLINE
  5
100
100
AcDbEntity
  8
0
 62
7
100
AcDbSpline
 70
8
 71
3
 72
8
 73
4
 74
0
 40
0
 40
0
 40
0
 40
0
 40
1
 40
1
 40
1
 40
1
 10
8.858407
 20
24.511259
 30
0.0
 10
8.355699
 20
23.982093
 30
0.0
 10
8.249866
 20
23.320635
 30
0.0
 10
8.461532
 20
22.950219
 30
0.0
  0
SPLINE
  5
101
100
AcDbEntity
  8
0
 62
7
100
AcDbSpline
 70
8
 71
3
 72
8
 73
4
 74
0
 40
0
 40
0
 40
0
 40
0
 40
1
 40
1
 40
1
 40
1
 10
8.461532
 20
22.950219
 30
0.0
 10
8.699657
 20
22.526886
 30
0.0
 10
8.990698
 20
22.315220
 30
0.0
 10
9.440490
 20
22.315220
 30
0.0
  0
SPLINE
  5
102
100
AcDbEntity
  8
0
 62
7
100
AcDbSpline
 70
8
 71
3
 72
8
 73
4
 74
0
 40
0
 40
0
 40
0
 40
0
 40
1
 40
1
 40
1
 40
1
 10
9.440490
 20
22.315220
 30
0.0
 10
9.625698
 20
22.315220
 30
0.0
 10
10.498822
 20
22.341678
 30
0.0
 10
10.975071
 20
22.050637
 30
0.0
  0
SPLINE
  5
103
100
AcDbEntity
  8
0
 62
7
100
AcDbSpline
 70
8
 71
3
 72
8
 73
4
 74
0
 40
0
 40
0
 40
0
 40
0
 40
1
 40
1
 40
1
 40
1
 10
10.975071
 20
22.050637
 30
0.0
 10
11.504237
 20
21.733137
 30
0.0
 10
12.641944
 20
21.177513
 30
0.0
 10
13.964859
 20
21.309804
 30
0.0
  0
SPLINE
  5
104
100
AcDbEntity
  8
0
 62
7
100
AcDbSpline
 70
8
 71
3
 72
8
 73
4
 74
0
 40
0
 40
0
 40
0
 40
0
 40
1
 40
1
 40
1
 40
1
 10
13.964859
 20
21.309804
 30
0.0
 10
14.837983
 20
21.389179
 30
0.0
 10
15.975690
 20
22.262303
 30
0.0
 10
16.504856
 20
21.627304
 30
0.0
  0
SPLINE
  5
105
100
AcDbEntity
  8
0
 62
7
100
AcDbSpline
 70
8
 71
3
 72
8
 73
4
 74
0
 40
0
 40
0
 40
0
 40
0
 40
1
 40
1
 40
1
 40
1
 10
16.504856
 20
21.627304
 30
0.0
 10
16.769439
 20
21.309804
 30
0.0
 10
17.192772
 20
20.119181
 30
0.0
 10
17.219230
 20
18.452308
 30
0.0
  0
SPLINE
  5
106
100
AcDbEntity
  8
0
 62
7
100
AcDbSpline
 70
8
 71
3
 72
8
 73
4
 74
0
 40
0
 40
0
 40
0
 40
0
 40
1
 40
1
 40
1
 40
1
 10
17.219230
 20
18.452308
 30
0.0
 10
17.245688
 20
17.288143
 30
0.0
 10
17.060480
 20
13.187106
 30
0.0
 10
17.589646
 20
10.567734
 30
0.0
  0
SPLINE
  5
107
100
AcDbEntity
  8
0
 62
7
100
AcDbSpline
 70
8
 71
3
 72
8
 73
4
 74
0
 40
0
 40
0
 40
0
 40
0
 40
1
 40
1
 40
1
 40
1
 10
17.589646
 20
10.567734
 30
0.0
 10
17.616104
 20
10.382526
 30
0.0
 10
17.457355
 20
10.197318
 30
0.0
 10
17.272146
 20
10.197318
 30
0.0
  0
SPLINE
  5
108
100
AcDbEntity
  8
0
 62
7
100
AcDbSpline
 70
8
 71
3
 72
8
 73
4
 74
0
 40
0
 40
0
 40
0
 40
0
 40
1
 40
1
 40
1
 40
1
 10
17.272146
 20
10.197318
 30
0.0
 10
16.769439
 20
10.223776
 30
0.0
 10
16.187356
 20
10.435443
 30
0.0
 10
15.684648
 20
11.652525
 30
0.0
  0
SPLINE
  5
109
100
AcDbEntity
  8
0
 62
7
100
AcDbSpline
 70
8
 71
3
 72
8
 73
4
 74
0
 40
0
 40
0
 40
0
 40
0
 40
1
 40
1
 40
1
 40
1
 10
15.684648
 20
11.652525
 30
0.0
 10
13.012360
 20
18.187725
 30
0.0
 10
2.058624
 20
17.764392
 30
0.0
 10
0.444667
 20
10.408985
 30
0.0
  0
SPLINE
  5
10a
100
AcDbEntity
  8
0
 62
7
100
AcDbSpline
 70
8
 71
3
 72
8
 73
4
 74
0
 40
0
 40
0
 40
0
 40
0
 40
1
 40
1
 40
1
 40
1
 10
0.444667
 20
10.408985
 30
0.0
 10
-0.163873
 20
7.710238
 30
0.0
 10
-0.984081
 20
2.153994
 30
0.0
 10
4.334038
 20
0.566496
 30
0.0
  0
SPLINE
  5
10b
100
AcDbEntity
  8
0
 62
7
100
AcDbSpline
 70
8
 71
3
 72
8
 73
4
 74
0
 40
0
 40
0
 40
0
 40
0
 40
1
 40
1
 40
1
 40
1
 10
4.334038
 20
0.566496
 30
0.0
 10
8.276324
 20
-0.597669
 30
0.0
 10
13.832567
 20
0.354830
 30
0.0
 10
16.795897
 20
0.592954
 30
0.0
  0
SPLINE
  5
10c
100
AcDbEntity
  8
0
 62
7
100
AcDbSpline
 70
8
 71
3
 72
8
 73
4
 74
0
 40
0
 40
0
 40
0
 40
0
 40
1
 40
1
 40
1
 40
1
 10
16.795897
 20
0.592954
 30
0.0
 10
18.647978
 20
0.751704
 30
0.0
 10
25.368387
 20
1.042745
 30
0.0
 10
25.950470
 20
4.799825
 30
0.0
  0
SPLINE
  5
10d
100
AcDbEntity
  8
0
 62
7
100
AcDbSpline
 70
8
 71
3
 72
8
 73
4
 74
0
 40
0
 40
0
 40
0
 40
0
 40
1
 40
1
 40
1
 40
1
 10
25.950470
 20
4.799825
 30
0.0
 10
26.135678
 20
5.884615
 30
0.0
 10
25.871095
 20
7.763155
 30
0.0
 10
25.527137
 20
10.250235
 30
0.0
  0
SPLINE
  5
10e
100
AcDbEntity
  8
0
 62
7
100
AcDbSpline
 70
8
 71
3
 72
8
 73
4
 74
0
 40
0
 40
0
 40
0
 40
0
 40
1
 40
1
 40
1
 40
1
 10
25.527137
 20
10.250235
 30
0.0
 10
25.421304
 20
11.096900
 30
0.0
 10
25.156721
 20
13.478147
 30
0.0
 10
24.283597
 20
16.097519
 30
0.0
  0
SPLINE
  5
10f
100
AcDbEntity
  8
0
 62
7
100
AcDbSpline
 70
8
 71
3
 72
8
 73
4
 74
0
 40
0
 40
0
 40
0
 40
0
 40
1
 40
1
 40
1
 40
1
 10
24.283597
 20
16.097519
 30
0.0
 10
23.542764
 20
18.214183
 30
0.0
 10
22.484432
 20
20.172097
 30
0.0
 10
21.161517
 20
22.368136
 30
0.0
  0
SPLINE
  5
110
100
AcDbEntity
  8
0
 62
7
100
AcDbSpline
 70
8
 71
3
 72
8
 73
4
 74
0
 40
0
 40
0
 40
0
 40
0
 40
1
 40
1
 40
1
 40
1
 10
21.161517
 20
22.368136
 30
0.0
 10
20.685267
 20
23.161885
 30
0.0
 10
20.103185
 20
24.458342
 30
0.0
 10
18.568603
 20
26.045840
 30
0.0
  0
SPLINE
  5
111
100
AcDbEntity
  8
0
 62
7
100
AcDbSpline
 70
8
 71
3
 72
8
 73
4
 74
0
 40
0
 40
0
 40
0
 40
0
 40
1
 40
1
 40
1
 40
1
 10
18.568603
 20
26.045840
 30
0.0
 10
16.425481
 20
28.268337
 30
0.0
 10
13.806109
 20
29.802919
 30
0.0
 10
12.297986
 20
30.490835
 30
0.0
  0
SPLINE
  5
112
100
AcDbEntity
  8
0
 62
7
100
AcDbSpline
 70
8
 71
3
 72
8
 73
4
 74
0
 40
0
 40
0
 40
0
 40
0
 40
1
 40
1
 40
1
 40
1
 10
12.297986
 20
30.490835
 30
0.0
 10
11.186737
 20
30.993542
 30
0.0
 10
10.551738
 20
30.120418
 30
0.0
 10
10.260697
 20
29.432503
 30
0.0
  0
SPLINE
  5
113
100
AcDbEntity
  8
0
 62
7
100
AcDbSpline
 70
8
 71
3
 72
8
 73
4
 74
0
 40
0
 40
0
 40
0
 40
0
 40
1
 40
1
 40
1
 40
1
 10
10.260697
 20
29.432503
 30
0.0
 10
10.022572
 20
28.850420
 30
0.0
 10
8.646741
 20
26.998339
 30
0.0
 10
8.011741
 20
26.125215
 30
0.0
  0
SPLINE
  5
114
100
AcDbEntity
  8
0
 62
7
100
AcDbSpline
 70
8
 71
3
 72
8
 73
4
 74
0
 40
0
 40
0
 40
0
 40
0
 40
1
 40
1
 40
1
 40
1
 10
8.011741
 20
26.125215
 30
0.0
 10
7.826533
 20
25.860632
 30
0.0
 10
7.694242
 20
25.278549
 30
0.0
 10
8.091116
 20
25.013966
 30
0.0
  0
SPLINE
  5
115
100
AcDbEntity
  8
0
 62
7
100
AcDbSpline
 70
8
 71
3
 72
8
 73
4
 74
0
 40
0
 40
0
 40
0
 40
0
 40
1
 40
1
 40
1
 40
1
 10
8.091116
 20
25.013966
 30
0.0
 10
8.461532
 20
24.722925
 30
0.0
 10
8.858407
 20
24.511259
 30
0.0
 10
8.858407
 20
24.511259
 30
0.0
  0
SPLINE
  5
116
100
AcDbEntity
  8
0
 62
7
100
AcDbSpline
 70
8
 71
3
 72
8
 73
4
 74
0
 40
0
 40
0
 40
0
 40
0
 40
1
 40
1
 40
1
 40
1
 10
0.894555
 20
12.737314
 30
0.0
 10
1.582471
 20
12.816689
 30
0.0
 10
3.619760
 20
13.134189
 30
0.0
 10
3.804968
 20
11.070441
 30
0.0
  0
SPLINE
  5
117
100
AcDbEntity
  8
0
 62
7
100
AcDbSpline
 70
8
 71
3
 72
8
 73
4
 74
0
 40
0
 40
0
 40
0
 40
0
 40
1
 40
1
 40
1
 40
1
 10
3.804968
 20
11.070441
 30
0.0
 10
3.910801
 20
9.932734
 30
0.0
 10
3.619760
 20
7.233988
 30
0.0
 10
5.524758
 20
5.725865
 30
0.0
  0
SPLINE
  5
118
100
AcDbEntity
  8
0
 62
7
100
AcDbSpline
 70
8
 71
3
 72
8
 73
4
 74
0
 40
0
 40
0
 40
0
 40
0
 40
1
 40
1
 40
1
 40
1
 10
5.524758
 20
5.725865
 30
0.0
 10
7.429755
 20
4.217741
 30
0.0
 10
9.731627
 20
3.344618
 30
0.0
 10
12.959540
 20
4.932116
 30
0.0
  0
SPLINE
  5
119
100
AcDbEntity
  8
0
 62
7
100
AcDbSpline
 70
8
 71
3
 72
8
 73
4
 74
0
 40
0
 40
0
 40
0
 40
0
 40
1
 40
1
 40
1
 40
1
 10
12.959540
 20
4.932116
 30
0.0
 10
13.250581
 20
5.090865
 30
0.0
 10
13.356415
 20
4.985032
 30
0.0
 10
13.091832
 20
4.667533
 30
0.0
  0
SPLINE
  5
11a
100
AcDbEntity
  8
0
 62
7
100
AcDbSpline
 70
8
 71
3
 72
8
 73
4
 74
0
 40
0
 40
0
 40
0
 40
0
 40
1
 40
1
 40
1
 40
1
 10
13.091832
 20
4.667533
 30
0.0
 10
12.827249
 20
4.376491
 30
0.0
 10
11.742458
 20
3.423992
 30
0.0
 10
10.922251
 20
2.974201
 30
0.0
  0
SPLINE
  5
11b
100
AcDbEntity
  8
0
 62
7
100
AcDbSpline
 70
8
 71
3
 72
8
 73
4
 74
0
 40
0
 40
0
 40
0
 40
0
 40
1
 40
1
 40
1
 40
1
 10
10.922251
 20
2.974201
 30
0.0
 10
10.287252
 20
2.630243
 30
0.0
 10
10.498918
 20
1.862953
 30
0.0
 10
11.292667
 20
1.757120
 30
0.0
  0
SPLINE
  5
11c
100
AcDbEntity
  8
0
 62
7
100
AcDbSpline
 70
8
 71
3
 72
8
 73
4
 74
0
 40
0
 40
0
 40
0
 40
0
 40
1
 40
1
 40
1
 40
1
 10
11.292667
 20
1.757120
 30
0.0
 10
13.832664
 20
1.439620
 30
0.0
 10
15.552454
 20
2.471494
 30
0.0
 10
17.748492
 20
2.524410
 30
0.0
  0
SPLINE
  5
11d
100
AcDbEntity
  8
0
 62
7
100
AcDbSpline
 70
8
 71
3
 72
8
 73
4
 74
0
 40
0
 40
0
 40
0
 40
0
 40
1
 40
1
 40
1
 40
1
 10
17.748492
 20
2.524410
 30
0.0
 10
22.563903
 20
2.656702
 30
0.0
 10
23.066611
 20
2.577327
 30
0.0
 10
24.045568
 20
3.238784
 30
0.0
  0
SPLINE
  5
11e
100
AcDbEntity
  8
0
 62
7
100
AcDbSpline
 70
8
 71
3
 72
8
 73
4
 74
0
 40
0
 40
0
 40
0
 40
0
 40
1
 40
1
 40
1
 40
1
 10
24.045568
 20
3.238784
 30
0.0
 10
24.045568
 20
3.238784
 30
0.0
 10
25.368483
 20
4.111908
 30
0.0
 10
25.315566
 20
5.434823
 30
0.0
  0
SPLINE
  5
11f
100
AcDbEntity
  8
0
 62
7
100
AcDbSpline
 70
8
 71
3
 72
8
 73
4
 74
0
 40
0
 40
0
 40
0
 40
0
 40
1
 40
1
 40
1
 40
1
 10
25.315566
 20
5.434823
 30
0.0
 10
25.103900
 20
12.710856
 30
0.0
 10
23.066611
 20
17.632100
 30
0.0
 10
20.844114
 20
21.309804
 30
0.0
  0
SPLINE
  5
120
100
AcDbEntity
  8
0
 62
7
100
AcDbSpline
 70
8
 71
3
 72
8
 73
4
 74
0
 40
0
 40
0
 40
0
 40
0
 40
1
 40
1
 40
1
 40
1
 10
20.844114
 20
21.309804
 30
0.0
 10
19.759323
 20
23.108968
 30
0.0
 10
18.118909
 20
26.707297
 30
0.0
 10
12.192249
 20
30.146876
 30
0.0
  0
SPLINE
  5
121
100
AcDbEntity
  8
0
 62
7
100
AcDbSpline
 70
8
 71
3
 72
8
 73
4
 74
0
 40
0
 40
0
 40
0
 40
0
 40
1
 40
1
 40
1
 40
1
 10
12.192249
 20
30.146876
 30
0.0
 10
11.901208
 20
30.305626
 30
0.0
 10
11.398500
 20
30.437917
 30
0.0
 10
10.975168
 20
29.776460
 30
0.0
  0
SPLINE
  5
122
100
AcDbEntity
  8
0
 62
7
100
AcDbSpline
 70
8
 71
3
 72
8
 73
4
 74
0
 40
0
 40
0
 40
0
 40
0
 40
1
 40
1
 40
1
 40
1
 10
10.975168
 20
29.776460
 30
0.0
 10
10.393085
 20
28.850419
 30
0.0
 10
10.075585
 20
28.427086
 30
0.0
 10
9.625794
 20
27.739171
 30
0.0
  0
SPLINE
  5
123
100
AcDbEntity
  8
0
 62
7
100
AcDbSpline
 70
8
 71
3
 72
8
 73
4
 74
0
 40
0
 40
0
 40
0
 40
0
 40
1
 40
1
 40
1
 40
1
 10
9.625794
 20
27.739171
 30
0.0
 10
9.149545
 20
27.051255
 30
0.0
 10
8.435171
 20
27.395213
 30
0.0
 10
8.435171
 20
27.395213
 30
0.0
  0
LWPOLYLINE
  5
124
100
AcDbEntity
  8
0
 62
7
100
AcDbPolyline
 90
1
 70
1
 10
8.858407
 20
24.511259
 30
0.0
  0
SPLINE
  5
125
100
AcDbEntity
  8
0
 62
7
100
AcDbSpline
 70
8
 71
3
 72
8
 73
4
 74
0
 40
0
 40
0
 40
0
 40
0
 40
1
 40
1
 40
1
 40
1
 10
14.494122
 20
21.653761
 30
0.0
 10
13.832664
 20
21.627303
 30
0.0
 10
12.456832
 20
21.944803
 30
0.0
 10
11.795375
 20
22.447510
 30
0.0
  0
SPLINE
  5
126
100
AcDbEntity
  8
0
 62
7
100
AcDbSpline
 70
8
 71
3
 72
8
 73
4
 74
0
 40
0
 40
0
 40
0
 40
0
 40
1
 40
1
 40
1
 40
1
 10
11.795375
 20
22.447510
 30
0.0
 10
11.133917
 20
22.950218
 30
0.0
 10
10.393085
 20
22.817927
 30
0.0
 10
10.128502
 20
22.791468
 30
0.0
  0
SPLINE
  5
127
100
AcDbEntity
  8
0
 62
7
100
AcDbSpline
 70
8
 71
3
 72
8
 73
4
 74
0
 40
0
 40
0
 40
0
 40
0
 40
1
 40
1
 40
1
 40
1
 10
10.128502
 20
22.791468
 30
0.0
 10
9.863919
 20
22.765010
 30
0.0
 10
9.255378
 20
22.870843
 30
0.0
 10
9.308295
 20
23.558759
 30
0.0
  0
SPLINE
  5
128
100
AcDbEntity
  8
0
 62
7
100
AcDbSpline
 70
8
 71
3
 72
8
 73
4
 74
0
 40
0
 40
0
 40
0
 40
0
 40
1
 40
1
 40
1
 40
1
 10
9.308295
 20
23.558759
 30
0.0
 10
9.361211
 20
24.246675
 30
0.0
 10
9.387670
 20
24.564174
 30
0.0
 10
9.387670
 20
24.564174
 30
0.0
  0
LWPOLYLINE
  5
129
100
AcDbEntity
  8
0
 62
7
100
AcDbPolyline
 90
10
 70
0
 10
8.435171
 20
27.395213
 30
0.0
 10
11.133917
 20
31.760832
 30
0.0
 10
18.171825
 20
27.686254
 30
0.0
 10
25.527233
 20
17.208767
 30
0.0
 10
27.061814
 20
3.476909
 30
0.0
 10
23.516402
 20
0.222538
 30
0.0
 10
4.439967
 20
-0.782877
 30
0.0
 10
-0.957526
 20
2.788993
 30
0.0
 10
-0.957526
 20
9.297735
 30
0.0
 10
0.894555
 20
12.737314
 30
0.0
  0
SPLINE
  5
12a
100
AcDbEntity
  8
0
 62
7
100
AcDbSpline
 70
8
 71
3
 72
8
 73
4
 74
0
 40
0
 40
0
 40
0
 40
0
 40
1
 40
1
 40
1
 40
1
 10
16.637244
 20
21.812511
 30
0.0
 10
16.981202
 20
21.547928
 30
0.0
 10
18.171825
 20
20.674804
 30
0.0
 10
18.118909
 20
18.320016
 30
0.0
  0
SPLINE
  5
12b
100
AcDbEntity
  8
0
 62
7
100
AcDbSpline
 70
8
 71
3
 72
8
 73
4
 74
0
 40
0
 40
0
 40
0
 40
0
 40
1
 40
1
 40
1
 40
1
 10
18.118909
 20
18.320016
 30
0.0
 10
17.960159
 20
10.964608
 30
0.0
 10
19.600574
 20
11.599607
 30
0.0
 10
19.600574
 20
9.959193
 30
0.0
  0
SPLINE
  5
12c
100
AcDbEntity
  8
0
 62
7
100
AcDbSpline
 70
8
 71
3
 72
8
 73
4
 74
0
 40
0
 40
0
 40
0
 40
0
 40
1
 40
1
 40
1
 40
1
 10
19.600574
 20
9.959193
 30
0.0
 10
19.600574
 20
9.218360
 30
0.0
 10
17.298701
 20
9.959193
 30
0.0
 10
17.298701
 20
9.959193
 30
0.0
  0
LWPOLYLINE
  5
12d
100
AcDbEntity
  8
0
 62
7
100
AcDbPolyline
 90
5
 70
0
 10
9.387670
 20
24.564174
 30
0.0
 10
7.853088
 20
24.352508
 30
0.0
 10
7.482672
 20
21.442095
 30
0.0
 10
13.488706
 20
19.246056
 30
0.0
 10
14.494122
 20
21.653761
 30
0.0
  0
SPLINE
  5
12e
100
AcDbEntity
  8
0
 62
7
100
AcDbSpline
 70
8
 71
3
 72
8
 73
4
 74
0
 40
0
 40
0
 40
0
 40
0
 40
1
 40
1
 40
1
 40
1
 10
4.254759
 20
15.859394
 30
0.0
 10
4.387051
 20
15.647727
 30
0.0
 10
4.492884
 20
15.145020
 30
0.0
 10
5.313091
 20
15.303769
 30
0.0
  0
SPLINE
  5
12f
100
AcDbEntity
  8
0
 62
7
100
AcDbSpline
 70
8
 71
3
 72
8
 73
4
 74
0
 40
0
 40
0
 40
0
 40
0
 40
1
 40
1
 40
1
 40
1
 10
5.313091
 20
15.303769
 30
0.0
 10
6.133299
 20
15.462519
 30
0.0
 10
7.614963
 20
16.176893
 30
0.0
 10
10.551835
 20
15.383144
 30
0.0
  0
SPLINE
  5
130
100
AcDbEntity
  8
0
 62
7
100
AcDbSpline
 70
8
 71
3
 72
8
 73
4
 74
0
 40
0
 40
0
 40
0
 40
0
 40
1
 40
1
 40
1
 40
1
 10
10.551835
 20
15.383144
 30
0.0
 10
11.663083
 20
15.092103
 30
0.0
 10
11.663083
 20
15.859394
 30
0.0
 10
11.663083
 20
15.859394
 30
0.0
  0
LWPOLYLINE
  5
131
100
AcDbEntity
  8
0
 62
7
100
AcDbPolyline
 90
3
 70
0
 10
17.298701
 20
9.959193
 30
0.0
 10
16.504952
 20
14.060229
 30
0.0
 10
16.637244
 20
21.812511
 30
0.0
  0
SPLINE
  5
132
100
AcDbEntity
  8
0
 62
7
100
AcDbSpline
 70
8
 71
3
 72
8
 73
4
 74
0
 40
0
 40
0
 40
0
 40
0
 40
1
 40
1
 40
1
 40
1
 10
3.857885
 20
9.932734
 30
0.0
 10
4.096009
 20
5.302532
 30
0.0
 10
9.308295
 20
3.106493
 30
0.0
 10
13.065373
 20
5.434823
 30
0.0
  0
SPLINE
  5
133
100
AcDbEntity
  8
0
 62
7
100
AcDbSpline
 70
8
 71
3
 72
8
 73
4
 74
0
 40
0
 40
0
 40
0
 40
0
 40
1
 40
1
 40
1
 40
1
 10
13.065373
 20
5.434823
 30
0.0
 10
13.462248
 20
5.672948
 30
0.0
 10
13.779747
 20
5.302532
 30
0.0
 10
13.435790
 20
5.037949
 30
0.0
  0
SPLINE
  5
134
100
AcDbEntity
  8
0
 62
7
100
AcDbSpline
 70
8
 71
3
 72
8
 73
4
 74
0
 40
0
 40
0
 40
0
 40
0
 40
1
 40
1
 40
1
 40
1
 10
13.435790
 20
5.037949
 30
0.0
 10
10.022669
 20
2.259827
 30
0.0
 10
6.133299
 20
3.556284
 30
0.0
 10
4.360592
 20
5.752323
 30
0.0
  0
SPLINE
  5
135
100
AcDbEntity
  8
0
 62
7
100
AcDbSpline
 70
8
 71
3
 72
8
 73
4
 74
0
 40
0
 40
0
 40
0
 40
0
 40
1
 40
1
 40
1
 40
1
 10
4.360592
 20
5.752323
 30
0.0
 10
3.408094
 20
6.942946
 30
0.0
 10
2.984761
 20
8.609819
 30
0.0
 10
3.196427
 20
9.932734
 30
0.0
  0
SPLINE
  5
136
100
AcDbEntity
  8
0
 62
7
100
AcDbSpline
 70
8
 71
3
 72
8
 73
4
 74
0
 40
0
 40
0
 40
0
 40
0
 40
1
 40
1
 40
1
 40
1
 10
3.196427
 20
9.932734
 30
0.0
 10
3.275802
 20
10.382525
 30
0.0
 10
3.831426
 20
10.329609
 30
0.0
 10
3.857885
 20
9.932734
 30
0.0
  0
LWPOLYLINE
  5
137
100
AcDbEntity
  8
0
 62
7
100
AcDbPolyline
 90
3
 70
0
 10
11.663083
 20
15.859394
 30
0.0
 10
7.482672
 20
18.161266
 30
0.0
 10
4.254759
 20
15.859394
 30
0.0
  0
SPLINE
  5
138
100
AcDbEntity
  8
0
 62
7
100
AcDbSpline
 70
8
 71
3
 72
8
 73
4
 74
0
 40
0
 40
0
 40
0
 40
0
 40
1
 40
1
 40
1
 40
1
 10
9.572878
 20
16.494393
 30
0.0
 10
9.599336
 20
16.282726
 30
0.0
 10
9.678711
 20
15.515436
 30
0.0
 10
10.525376
 20
15.356686
 30
0.0
  0
SPLINE
  5
139
100
AcDbEntity
  8
0
 62
7
100
AcDbSpline
 70
8
 71
3
 72
8
 73
4
 74
0
 40
0
 40
0
 40
0
 40
0
 40
1
 40
1
 40
1
 40
1
 10
10.525376
 20
15.356686
 30
0.0
 10
10.842876
 20
15.303769
 30
0.0
 10
13.700373
 20
14.324812
 30
0.0
 10
14.996829
 20
10.858775
 30
0.0
  0
SPLINE
  5
13a
100
AcDbEntity
  8
0
 62
7
100
AcDbSpline
 70
8
 71
3
 72
8
 73
4
 74
0
 40
0
 40
0
 40
0
 40
0
 40
1
 40
1
 40
1
 40
1
 10
14.996829
 20
10.858775
 30
0.0
 10
15.446620
 20
9.641693
 30
0.0
 10
16.663702
 20
9.403568
 30
0.0
 10
17.139952
 20
9.350652
 30
0.0
  0
SPLINE
  5
13b
100
AcDbEntity
  8
0
 62
7
100
AcDbSpline
 70
8
 71
3
 72
8
 73
4
 74
0
 40
0
 40
0
 40
0
 40
0
 40
1
 40
1
 40
1
 40
1
 10
17.139952
 20
9.350652
 30
0.0
 10
17.616201
 20
9.324193
 30
0.0
 10
19.679948
 20
9.826901
 30
0.0
 10
20.447239
 20
7.816070
 30
0.0
  0
SPLINE
  5
13c
100
AcDbEntity
  8
0
 62
7
100
AcDbSpline
 70
8
 71
3
 72
8
 73
4
 74
0
 40
0
 40
0
 40
0
 40
0
 40
1
 40
1
 40
1
 40
1
 10
20.447239
 20
7.816070
 30
0.0
 10
20.579531
 20
7.498571
 30
0.0
 10
20.897030
 20
7.657321
 30
0.0
 10
20.844114
 20
7.868987
 30
0.0
  0
SPLINE
  5
13d
100
AcDbEntity
  8
0
 62
7
100
AcDbSpline
 70
8
 71
3
 72
8
 73
4
 74
0
 40
0
 40
0
 40
0
 40
0
 40
1
 40
1
 40
1
 40
1
 10
20.844114
 20
7.868987
 30
0.0
 10
20.711822
 20
8.689194
 30
0.0
 10
20.420781
 20
9.959193
 30
0.0
 10
18.595158
 20
10.197317
 30
0.0
  0
SPLINE
  5
13e
100
AcDbEntity
  8
0
 62
7
100
AcDbSpline
 70
8
 71
3
 72
8
 73
4
 74
0
 40
0
 40
0
 40
0
 40
0
 40
1
 40
1
 40
1
 40
1
 10
18.595158
 20
10.197317
 30
0.0
 10
18.383492
 20
10.223776
 30
0.0
 10
18.198284
 20
10.356067
 30
0.0
 10
18.145367
 20
10.567734
 30
0.0
  0
SPLINE
  5
13f
100
AcDbEntity
  8
0
 62
7
100
AcDbSpline
 70
8
 71
3
 72
8
 73
4
 74
0
 40
0
 40
0
 40
0
 40
0
 40
1
 40
1
 40
1
 40
1
 10
18.145367
 20
10.567734
 30
0.0
 10
17.748492
 20
11.599607
 30
0.0
 10
17.483909
 20
12.605023
 30
0.0
 10
17.060577
 20
12.737314
 30
0.0
  0
SPLINE
  5
140
100
AcDbEntity
  8
0
 62
7
100
AcDbSpline
 70
8
 71
3
 72
8
 73
4
 74
0
 40
0
 40
0
 40
0
 40
0
 40
1
 40
1
 40
1
 40
1
 10
17.060577
 20
12.737314
 30
0.0
 10
16.610786
 20
12.869606
 30
0.0
 10
10.975168
 20
16.811892
 30
0.0
 10
10.975168
 20
16.811892
 30
0.0
  0
LWPOLYLINE
  5
141
100
AcDbEntity
  8
0
 62
7
100
AcDbPolyline
 90
1
 70
1
 10
3.857885
 20
9.932734
 30
0.0
  0
SPLINE
  5
142
100
AcDbEntity
  8
0
 62
7
100
AcDbSpline
 70
8
 71
3
 72
8
 73
4
 74
0
 40
0
 40
0
 40
0
 40
0
 40
1
 40
1
 40
1
 40
1
 10
16.954743
 20
19.246056
 30
0.0
 10
17.139952
 20
19.510639
 30
0.0
 10
17.430993
 20
19.881055
 30
0.0
 10
17.298701
 20
20.463138
 30
0.0
  0
SPLINE
  5
143
100
AcDbEntity
  8
0
 62
7
100
AcDbSpline
 70
8
 71
3
 72
8
 73
4
 74
0
 40
0
 40
0
 40
0
 40
0
 40
1
 40
1
 40
1
 40
1
 10
17.298701
 20
20.463138
 30
0.0
 10
17.166410
 20
21.045221
 30
0.0
 10
17.007660
 20
21.600845
 30
0.0
 10
16.954743
 20
21.733136
 30
0.0
  0
SPLINE
  5
144
100
AcDbEntity
  8
0
 62
7
100
AcDbSpline
 70
8
 71
3
 72
8
 73
4
 74
0
 40
0
 40
0
 40
0
 40
0
 40
1
 40
1
 40
1
 40
1
 10
16.954743
 20
21.733136
 30
0.0
 10
16.901827
 20
21.865428
 30
0.0
 10
16.822452
 20
22.156469
 30
0.0
 10
17.087035
 20
22.473969
 30
0.0
  0
SPLINE
  5
145
100
AcDbEntity
  8
0
 62
7
100
AcDbSpline
 70
8
 71
3
 72
8
 73
4
 74
0
 40
0
 40
0
 40
0
 40
0
 40
1
 40
1
 40
1
 40
1
 10
17.087035
 20
22.473969
 30
0.0
 10
17.325160
 20
22.738552
 30
0.0
 10
17.139952
 20
23.135426
 30
0.0
 10
16.769535
 20
22.897302
 30
0.0
  0
SPLINE
  5
146
100
AcDbEntity
  8
0
 62
7
100
AcDbSpline
 70
8
 71
3
 72
8
 73
4
 74
0
 40
0
 40
0
 40
0
 40
0
 40
1
 40
1
 40
1
 40
1
 10
16.769535
 20
22.897302
 30
0.0
 10
13.779747
 20
20.939387
 30
0.0
 10
11.980583
 20
21.971261
 30
0.0
 10
11.345584
 20
22.341677
 30
0.0
  0
SPLINE
  5
147
100
AcDbEntity
  8
0
 62
7
100
AcDbSpline
 70
8
 71
3
 72
8
 73
4
 74
0
 40
0
 40
0
 40
0
 40
0
 40
1
 40
1
 40
1
 40
1
 10
11.345584
 20
22.341677
 30
0.0
 10
11.001626
 20
22.553344
 30
0.0
 10
9.969752
 20
22.553344
 30
0.0
 10
9.493503
 20
22.579802
 30
0.0
  0
SPLINE
  5
148
100
AcDbEntity
  8
0
 62
7
100
AcDbSpline
 70
8
 71
3
 72
8
 73
4
 74
0
 40
0
 40
0
 40
0
 40
0
 40
1
 40
1
 40
1
 40
1
 10
9.493503
 20
22.579802
 30
0.0
 10
8.355796
 20
22.606260
 30
0.0
 10
8.488087
 20
24.193758
 30
0.0
 10
9.361211
 20
24.378966
 30
0.0
  0
SPLINE
  5
149
100
AcDbEntity
  8
0
 62
7
100
AcDbSpline
 70
8
 71
3
 72
8
 73
4
 74
0
 40
0
 40
0
 40
0
 40
0
 40
1
 40
1
 40
1
 40
1
 10
9.361211
 20
24.378966
 30
0.0
 10
10.234335
 20
24.564174
 30
0.0
 10
10.763501
 20
24.035008
 30
0.0
 10
11.477875
 20
24.326050
 30
0.0
  0
SPLINE
  5
14a
100
AcDbEntity
  8
0
 62
7
100
AcDbSpline
 70
8
 71
3
 72
8
 73
4
 74
0
 40
0
 40
0
 40
0
 40
0
 40
1
 40
1
 40
1
 40
1
 10
11.477875
 20
24.326050
 30
0.0
 10
11.901208
 20
24.484800
 30
0.0
 10
12.324541
 20
24.855216
 30
0.0
 10
12.985998
 20
24.934591
 30
0.0
  0
SPLINE
  5
14b
100
AcDbEntity
  8
0
 62
7
100
AcDbSpline
 70
8
 71
3
 72
8
 73
4
 74
0
 40
0
 40
0
 40
0
 40
0
 40
1
 40
1
 40
1
 40
1
 10
12.985998
 20
24.934591
 30
0.0
 10
13.277040
 20
24.961049
 30
0.0
 10
13.171207
 20
25.199174
 30
0.0
 10
13.038915
 20
25.199174
 30
0.0
  0
SPLINE
  5
14c
100
AcDbEntity
  8
0
 62
7
100
AcDbSpline
 70
8
 71
3
 72
8
 73
4
 74
0
 40
0
 40
0
 40
0
 40
0
 40
1
 40
1
 40
1
 40
1
 10
13.038915
 20
25.199174
 30
0.0
 10
12.774332
 20
25.199174
 30
0.0
 10
12.536207
 20
25.172715
 30
0.0
 10
12.324541
 20
25.146257
 30
0.0
  0
SPLINE
  5
14d
100
AcDbEntity
  8
0
 62
7
100
AcDbSpline
 70
8
 71
3
 72
8
 73
4
 74
0
 40
0
 40
0
 40
0
 40
0
 40
1
 40
1
 40
1
 40
1
 10
12.324541
 20
25.146257
 30
0.0
 10
12.456832
 20
26.601464
 30
0.0
 10
11.451417
 20
27.183546
 30
0.0
 10
11.451417
 20
28.771044
 30
0.0
  0
SPLINE
  5
14e
100
AcDbEntity
  8
0
 62
7
100
AcDbSpline
 70
8
 71
3
 72
8
 73
4
 74
0
 40
0
 40
0
 40
0
 40
0
 40
1
 40
1
 40
1
 40
1
 10
11.451417
 20
28.771044
 30
0.0
 10
11.451417
 20
29.035627
 30
0.0
 10
11.266209
 20
28.929794
 30
0.0
 10
11.239751
 20
28.850419
 30
0.0
  0
SPLINE
  5
14f
100
AcDbEntity
  8
0
 62
7
100
AcDbSpline
 70
8
 71
3
 72
8
 73
4
 74
0
 40
0
 40
0
 40
0
 40
0
 40
1
 40
1
 40
1
 40
1
 10
11.239751
 20
28.850419
 30
0.0
 10
11.160376
 20
28.612294
 30
0.0
 10
10.948709
 20
27.845004
 30
0.0
 10
11.266209
 20
27.024796
 30
0.0
  0
SPLINE
  5
150
100
AcDbEntity
  8
0
 62
7
100
AcDbSpline
 70
8
 71
3
 72
8
 73
4
 74
0
 40
0
 40
0
 40
0
 40
0
 40
1
 40
1
 40
1
 40
1
 10
11.266209
 20
27.024796
 30
0.0
 10
10.313710
 20
26.257506
 30
0.0
 10
9.652253
 20
26.522089
 30
0.0
 10
9.096628
 20
26.072298
 30
0.0
  0
SPLINE
  5
151
100
AcDbEntity
  8
0
 62
7
100
AcDbSpline
 70
8
 71
3
 72
8
 73
4
 74
0
 40
0
 40
0
 40
0
 40
0
 40
1
 40
1
 40
1
 40
1
 10
9.096628
 20
26.072298
 30
0.0
 10
8.964337
 20
25.940006
 30
0.0
 10
9.043712
 20
25.834173
 30
0.0
 10
9.149545
 20
25.860631
 30
0.0
  0
SPLINE
  5
152
100
AcDbEntity
  8
0
 62
7
100
AcDbSpline
 70
8
 71
3
 72
8
 73
4
 74
0
 40
0
 40
0
 40
0
 40
0
 40
1
 40
1
 40
1
 40
1
 10
9.149545
 20
25.860631
 30
0.0
 10
9.678711
 20
26.045839
 30
0.0
 10
9.969752
 20
26.045839
 30
0.0
 10
10.154960
 20
26.045839
 30
0.0
  0
SPLINE
  5
153
100
AcDbEntity
  8
0
 62
7
100
AcDbSpline
 70
8
 71
3
 72
8
 73
4
 74
0
 40
0
 40
0
 40
0
 40
0
 40
1
 40
1
 40
1
 40
1
 10
10.154960
 20
26.045839
 30
0.0
 10
10.287252
 20
26.045839
 30
0.0
 10
10.498918
 20
25.992923
 30
0.0
 10
10.446002
 20
25.834173
 30
0.0
  0
SPLINE
  5
154
100
AcDbEntity
  8
0
 62
7
100
AcDbSpline
 70
8
 71
3
 72
8
 73
4
 74
0
 40
0
 40
0
 40
0
 40
0
 40
1
 40
1
 40
1
 40
1
 10
10.446002
 20
25.834173
 30
0.0
 10
10.393085
 20
25.675423
 30
0.0
 10
10.260793
 20
25.490215
 30
0.0
 10
10.207877
 20
25.410840
 30
0.0
  0
SPLINE
  5
155
100
AcDbEntity
  8
0
 62
7
100
AcDbSpline
 70
8
 71
3
 72
8
 73
4
 74
0
 40
0
 40
0
 40
0
 40
0
 40
1
 40
1
 40
1
 40
1
 10
10.207877
 20
25.410840
 30
0.0
 10
10.075585
 20
25.252090
 30
0.0
 10
10.287252
 20
25.013966
 30
0.0
 10
10.446002
 20
25.225632
 30
0.0
  0
SPLINE
  5
156
100
AcDbEntity
  8
0
 62
7
100
AcDbSpline
 70
8
 71
3
 72
8
 73
4
 74
0
 40
0
 40
0
 40
0
 40
0
 40
1
 40
1
 40
1
 40
1
 10
10.446002
 20
25.225632
 30
0.0
 10
10.525376
 20
25.331465
 30
0.0
 10
10.816418
 20
26.045839
 30
0.0
 10
11.186834
 20
26.098756
 30
0.0
  0
SPLINE
  5
157
100
AcDbEntity
  8
0
 62
7
100
AcDbSpline
 70
8
 71
3
 72
8
 73
4
 74
0
 40
0
 40
0
 40
0
 40
0
 40
1
 40
1
 40
1
 40
1
 10
11.186834
 20
26.098756
 30
0.0
 10
11.372042
 20
26.125214
 30
0.0
 10
11.583708
 20
26.125214
 30
0.0
 10
11.689542
 20
25.834173
 30
0.0
  0
SPLINE
  5
158
100
AcDbEntity
  8
0
 62
7
100
AcDbSpline
 70
8
 71
3
 72
8
 73
4
 74
0
 40
0
 40
0
 40
0
 40
0
 40
1
 40
1
 40
1
 40
1
 10
11.689542
 20
25.834173
 30
0.0
 10
11.980583
 20
24.987507
 30
0.0
 10
11.636625
 20
24.881674
 30
0.0
 10
11.133917
 20
24.828757
 30
0.0
  0
SPLINE
  5
159
100
AcDbEntity
  8
0
 62
7
100
AcDbSpline
 70
8
 71
3
 72
8
 73
4
 74
0
 40
0
 40
0
 40
0
 40
0
 40
1
 40
1
 40
1
 40
1
 10
11.133917
 20
24.828757
 30
0.0
 10
10.737043
 20
24.802299
 30
0.0
 10
10.340168
 20
24.961049
 30
0.0
 10
10.102044
 20
24.961049
 30
0.0
  0
SPLINE
  5
15a
100
AcDbEntity
  8
0
 62
7
100
AcDbSpline
 70
8
 71
3
 72
8
 73
4
 74
0
 40
0
 40
0
 40
0
 40
0
 40
1
 40
1
 40
1
 40
1
 10
10.102044
 20
24.961049
 30
0.0
 10
9.731627
 20
24.961049
 30
0.0
 10
9.334753
 20
24.855216
 30
0.0
 10
9.176003
 20
24.722924
 30
0.0
  0
SPLINE
  5
15b
100
AcDbEntity
  8
0
 62
7
100
AcDbSpline
 70
8
 71
3
 72
8
 73
4
 74
0
 40
0
 40
0
 40
0
 40
0
 40
1
 40
1
 40
1
 40
1
 10
9.176003
 20
24.722924
 30
0.0
 10
8.964337
 20
24.881674
 30
0.0
 10
8.593921
 20
25.146257
 30
0.0
 10
8.408712
 20
25.278549
 30
0.0
  0
SPLINE
  5
15c
100
AcDbEntity
  8
0
 62
7
100
AcDbSpline
 70
8
 71
3
 72
8
 73
4
 74
0
 40
0
 40
0
 40
0
 40
0
 40
1
 40
1
 40
1
 40
1
 10
8.408712
 20
25.278549
 30
0.0
 10
8.276421
 20
25.384382
 30
0.0
 10
8.197046
 20
25.622506
 30
0.0
 10
8.329338
 20
25.807715
 30
0.0
  0
SPLINE
  5
15d
100
AcDbEntity
  8
0
 62
7
100
AcDbSpline
 70
8
 71
3
 72
8
 73
4
 74
0
 40
0
 40
0
 40
0
 40
0
 40
1
 40
1
 40
1
 40
1
 10
8.329338
 20
25.807715
 30
0.0
 10
8.461629
 20
26.019381
 30
0.0
 10
9.916836
 20
28.374170
 30
0.0
 10
9.996210
 20
28.559378
 30
0.0
  0
SPLINE
  5
15e
100
AcDbEntity
  8
0
 62
7
100
AcDbSpline
 70
8
 71
3
 72
8
 73
4
 74
0
 40
0
 40
0
 40
0
 40
0
 40
1
 40
1
 40
1
 40
1
 10
9.996210
 20
28.559378
 30
0.0
 10
10.102044
 20
28.718128
 30
0.0
 10
10.154960
 20
29.167919
 30
0.0
 10
9.943294
 20
29.300210
 30
0.0
  0
SPLINE
  5
15f
100
AcDbEntity
  8
0
 62
7
100
AcDbSpline
 70
8
 71
3
 72
8
 73
4
 74
0
 40
0
 40
0
 40
0
 40
0
 40
1
 40
1
 40
1
 40
1
 10
9.943294
 20
29.300210
 30
0.0
 10
9.890377
 20
29.458960
 30
0.0
 10
6.874131
 20
25.437298
 30
0.0
 10
6.874131
 20
25.437298
 30
0.0
  0
LWPOLYLINE
  5
160
100
AcDbEntity
  8
0
 62
7
100
AcDbPolyline
 90
2
 70
0
 10
10.975168
 20
16.811892
 30
0.0
 10
9.572878
 20
16.494393
 30
0.0
  0
LWPOLYLINE
  5
161
100
AcDbEntity
  8
0
 62
7
100
AcDbPolyline
 90
3
 70
0
 10
6.874131
 20
25.437298
 30
0.0
 10
8.514546
 20
21.759595
 30
0.0
 10
16.954743
 20
19.246056
 30
0.0
  0
ENDSEC
  0
SECTION
  2
OBJECTS
  0
DICTIONARY
  5
C
330
0
100
AcDbDictionary
  3
ACAD_GROUP
350
D
  3
ACAD_MLINESTYLE
350
17
  0
DICTIONARY
  5
D
330
C
100
AcDbDictionary
  0
DICTIONARY
  5
1A
330
C
100
AcDbDictionary
  0
DICTIONARY
  5
17
330
C
100
AcDbDictionary
  3
STANDARD
350
18
  0
DICTIONARY
  5
19
330
C
100
AcDbDictionary
  0
ENDSEC
  0
EOF
