999
"DXF R12 Output" (www.mydxf.blogspot.com)
 0 
SECTION
 2 
HEADER
 9 
$ACADVER
 1 
AC1009
 9 
$EXTMIN
 10 
 0 
 20 
 0 
 9 
$EXTMAX
 10 
 8.5 
 20 
 11 
 0 
ENDSEC
 0 
SECTION
 2 
ENTITIES
0
POLYLINE
8
Layer 1
62
7
70
0
10
0.000000
20
0.000000
66
1
0
VERTEX
8
Layer 1
10
12.739766
20
26.220251
70
0
0
VERTEX
8
Layer 1
10
12.273438
20
25.380200
70
0
0
VERTEX
8
Layer 1
10
12.342891
20
24.659212
70
0
0
VERTEX
8
Layer 1
10
12.752995
20
24.182962
70
0
0
VERTEX
8
Layer 1
10
13.321849
20
24.024212
70
0
0
VERTEX
8
Layer 1
10
13.979999
20
24.001061
70
0
0
VERTEX
8
Layer 1
10
14.856430
20
23.759629
70
0
0
VERTEX
8
Layer 1
10
16.053668
20
23.220542
70
0
0
VERTEX
8
Layer 1
10
16.895373
20
23.034093
70
0
0
VERTEX
8
Layer 1
10
17.846218
20
23.018797
70
0
0
VERTEX
8
Layer 1
10
19.245200
20
23.445437
70
0
0
VERTEX
8
Layer 1
10
19.888881
20
23.565740
70
0
0
VERTEX
8
Layer 1
10
20.386215
20
23.336297
70
0
0
VERTEX
8
Layer 1
10
20.832698
20
22.254814
70
0
0
VERTEX
8
Layer 1
10
21.100589
20
20.161301
70
0
0
VERTEX
8
Layer 1
10
21.097281
20
16.764716
70
0
0
VERTEX
8
Layer 1
10
21.193606
20
14.450028
70
0
0
VERTEX
8
Layer 1
10
21.471005
20
12.276727
70
0
0
VERTEX
8
Layer 1
10
21.391630
20
12.022066
70
0
0
VERTEX
8
Layer 1
10
21.153505
20
11.906311
70
0
0
VERTEX
8
Layer 1
10
20.764072
20
11.973697
70
0
0
VERTEX
8
Layer 1
10
20.359756
20
12.187430
70
0
0
VERTEX
8
Layer 1
10
19.955440
20
12.624406
70
0
0
VERTEX
8
Layer 1
10
19.566007
20
13.361518
70
0
0
VERTEX
8
Layer 1
10
18.972207
20
14.505329
70
0
0
VERTEX
8
Layer 1
10
18.210123
20
15.486088
70
0
0
VERTEX
8
Layer 1
10
17.305567
20
16.303834
70
0
0
VERTEX
8
Layer 1
10
16.284351
20
16.958606
70
0
0
VERTEX
8
Layer 1
10
15.172289
20
17.450442
70
0
0
VERTEX
8
Layer 1
10
13.995192
20
17.779382
70
0
0
VERTEX
8
Layer 1
10
12.778872
20
17.945463
70
0
0
VERTEX
8
Layer 1
10
11.549142
20
17.948725
70
0
0
VERTEX
8
Layer 1
10
10.331815
20
17.789207
70
0
0
VERTEX
8
Layer 1
10
9.152703
20
17.466946
70
0
0
VERTEX
8
Layer 1
10
8.037617
20
16.981983
70
0
0
VERTEX
8
Layer 1
10
7.012371
20
16.334356
70
0
0
VERTEX
8
Layer 1
10
6.102776
20
15.524102
70
0
0
VERTEX
8
Layer 1
10
5.334646
20
14.551263
70
0
0
VERTEX
8
Layer 1
10
4.733792
20
13.415875
70
0
0
VERTEX
8
Layer 1
10
4.326027
20
12.117977
70
0
0
VERTEX
8
Layer 1
10
3.929152
20
9.664797
70
0
0
VERTEX
8
Layer 1
10
3.886984
20
8.236359
70
0
0
VERTEX
8
Layer 1
10
4.048214
20
6.780015
70
0
0
VERTEX
8
Layer 1
10
4.487257
20
5.375762
70
0
0
VERTEX
8
Layer 1
10
5.278525
20
4.103593
70
0
0
VERTEX
8
Layer 1
10
6.496434
20
3.043504
70
0
0
VERTEX
8
Layer 1
10
8.215397
20
2.275490
70
0
0
VERTEX
8
Layer 1
10
9.761192
20
1.932617
70
0
0
VERTEX
8
Layer 1
10
11.408996
20
1.755005
70
0
0
VERTEX
8
Layer 1
10
14.813435
20
1.762860
70
0
0
VERTEX
8
Layer 1
10
20.677256
20
2.301948
70
0
0
VERTEX
8
Layer 1
10
22.807149
20
2.497905
70
0
0
VERTEX
8
Layer 1
10
25.730792
20
3.056010
70
0
0
VERTEX
8
Layer 1
10
27.167808
20
3.568536
70
0
0
VERTEX
8
Layer 1
10
28.416309
20
4.288801
70
0
0
VERTEX
8
Layer 1
10
29.347311
20
5.255873
70
0
0
VERTEX
8
Layer 1
10
29.653442
20
5.844169
70
0
0
VERTEX
8
Layer 1
10
29.831828
20
6.508818
70
0
0
VERTEX
8
Layer 1
10
29.818599
20
8.708164
70
0
0
VERTEX
8
Layer 1
10
29.408496
20
11.959228
70
0
0
VERTEX
8
Layer 1
10
29.074460
20
14.218105
70
0
0
VERTEX
8
Layer 1
10
28.712725
20
15.906889
70
0
0
VERTEX
8
Layer 1
10
28.164956
20
17.806512
70
0
0
VERTEX
8
Layer 1
10
26.822196
20
20.912055
70
0
0
VERTEX
8
Layer 1
10
25.042875
20
24.077129
70
0
0
VERTEX
8
Layer 1
10
24.143293
20
25.618325
70
0
0
VERTEX
8
Layer 1
10
23.435534
20
26.622087
70
0
0
VERTEX
8
Layer 1
10
22.449962
20
27.754833
70
0
0
VERTEX
8
Layer 1
10
20.778128
20
29.290241
70
0
0
VERTEX
8
Layer 1
10
19.076529
20
30.552798
70
0
0
VERTEX
8
Layer 1
10
17.493992
20
31.527621
70
0
0
VERTEX
8
Layer 1
10
16.179345
20
32.199827
70
0
0
VERTEX
8
Layer 1
10
15.433138
20
32.343281
70
0
0
VERTEX
8
Layer 1
10
14.853123
20
32.117145
70
0
0
VERTEX
8
Layer 1
10
14.426896
20
31.667767
70
0
0
VERTEX
8
Layer 1
10
14.142056
20
31.141495
70
0
0
VERTEX
8
Layer 1
10
13.166406
20
29.596992
70
0
0
VERTEX
8
Layer 1
10
11.893100
20
27.834208
70
0
0
VERTEX
8
Layer 1
10
11.714507
20
27.278583
70
0
0
VERTEX
8
Layer 1
10
11.766597
20
26.971006
70
0
0
VERTEX
8
Layer 1
10
11.972475
20
26.722959
70
0
0
VERTEX
8
Layer 1
10
12.739766
20
26.220251
70
0
0
VERTEX
8
Layer 1
10
12.739766
20
26.220251
70
0
0
SEQEND
8
Layer 1
0
POLYLINE
8
Layer 1
62
7
70
1
10
0.000000
20
0.000000
66
1
0
VERTEX
8
Layer 1
10
4.775803
20
14.446308
70
0
0
VERTEX
8
Layer 1
10
5.494725
20
14.509560
70
0
0
VERTEX
8
Layer 1
10
6.419525
20
14.416542
70
0
0
VERTEX
8
Layer 1
10
6.865337
20
14.234693
70
0
0
VERTEX
8
Layer 1
10
7.250068
20
13.921689
70
0
0
VERTEX
8
Layer 1
10
7.536200
20
13.446835
70
0
0
VERTEX
8
Layer 1
10
7.686216
20
12.779435
70
0
0
VERTEX
8
Layer 1
10
7.731691
20
11.676455
70
0
0
VERTEX
8
Layer 1
10
7.871424
20
10.246053
70
0
0
VERTEX
8
Layer 1
10
8.348501
20
8.746198
70
0
0
VERTEX
8
Layer 1
10
8.789507
20
8.050841
70
0
0
VERTEX
8
Layer 1
10
9.406006
20
7.434858
70
0
0
VERTEX
8
Layer 1
10
10.917436
20
6.451354
70
0
0
VERTEX
8
Layer 1
10
12.627304
20
5.877126
70
0
0
VERTEX
8
Layer 1
10
13.572154
20
5.796976
70
0
0
VERTEX
8
Layer 1
10
14.585218
20
5.883327
70
0
0
VERTEX
8
Layer 1
10
15.672695
20
6.157574
70
0
0
VERTEX
8
Layer 1
10
16.840788
20
6.641109
70
0
0
VERTEX
8
Layer 1
10
17.115293
20
6.687411
70
0
0
VERTEX
8
Layer 1
10
16.973079
20
6.376526
70
0
0
VERTEX
8
Layer 1
10
16.096648
20
5.589392
70
0
0
VERTEX
8
Layer 1
10
14.803499
20
4.683195
70
0
0
VERTEX
8
Layer 1
10
14.481865
20
4.362802
70
0
0
VERTEX
8
Layer 1
10
14.452926
20
3.985357
70
0
0
VERTEX
8
Layer 1
10
14.691878
20
3.652562
70
0
0
VERTEX
8
Layer 1
10
15.173915
20
3.466113
70
0
0
VERTEX
8
Layer 1
10
16.945381
20
3.444616
70
0
0
VERTEX
8
Layer 1
10
18.530812
20
3.710853
70
0
0
VERTEX
8
Layer 1
10
20.051751
20
4.046542
70
0
0
VERTEX
8
Layer 1
10
21.629740
20
4.233404
70
0
0
VERTEX
8
Layer 1
10
26.216948
20
4.392154
70
0
0
VERTEX
8
Layer 1
10
27.207067
20
4.575708
70
0
0
VERTEX
8
Layer 1
10
27.926816
20
4.947778
70
0
0
VERTEX
8
Layer 1
10
28.581659
20
5.549704
70
0
0
VERTEX
8
Layer 1
10
29.020701
20
6.242581
70
0
0
VERTEX
8
Layer 1
10
29.196814
20
7.143817
70
0
0
VERTEX
8
Layer 1
10
29.035067
20
9.764119
70
0
0
VERTEX
8
Layer 1
10
28.721392
20
12.176682
70
0
0
VERTEX
8
Layer 1
10
28.275011
20
14.394528
70
0
0
VERTEX
8
Layer 1
10
27.715149
20
16.430680
70
0
0
VERTEX
8
Layer 1
10
26.331876
20
20.009992
70
0
0
VERTEX
8
Layer 1
10
24.725361
20
23.018797
70
0
0
VERTEX
8
Layer 1
10
23.749298
20
24.674921
70
0
0
VERTEX
8
Layer 1
10
22.215130
20
26.822178
70
0
0
VERTEX
8
Layer 1
10
21.129461
20
28.022620
70
0
0
VERTEX
8
Layer 1
10
19.773112
20
29.277012
70
0
0
VERTEX
8
Layer 1
10
18.102363
20
30.562410
70
0
0
VERTEX
8
Layer 1
10
16.073497
20
31.855869
70
0
0
VERTEX
8
Layer 1
10
15.514566
20
31.978239
70
0
0
VERTEX
8
Layer 1
10
15.184250
20
31.844707
70
0
0
VERTEX
8
Layer 1
10
14.856415
20
31.485453
70
0
0
VERTEX
8
Layer 1
10
13.507042
20
29.448164
70
0
0
VERTEX
8
Layer 1
10
13.120090
20
29.104206
70
0
0
VERTEX
8
Layer 1
10
12.733137
20
29.018217
70
0
0
VERTEX
8
Layer 1
10
12.316419
20
29.104206
70
0
0
VERTEX
8
Layer 1
10
15.015165
20
33.469825
70
0
0
VERTEX
8
Layer 1
10
22.053073
20
29.395247
70
0
0
VERTEX
8
Layer 1
10
29.408480
20
18.917760
70
0
0
VERTEX
8
Layer 1
10
30.943062
20
5.185903
70
0
0
VERTEX
8
Layer 1
10
27.397650
20
1.931532
70
0
0
VERTEX
8
Layer 1
10
8.321215
20
0.926116
70
0
0
VERTEX
8
Layer 1
10
2.923722
20
4.497987
70
0
0
VERTEX
8
Layer 1
10
2.923722
20
11.006729
70
0
0
VERTEX
8
Layer 1
10
4.775803
20
14.446308
70
0
0
SEQEND
8
Layer 1
0
POLYLINE
8
Layer 1
62
7
70
0
10
0.000000
20
0.000000
66
1
0
VERTEX
8
Layer 1
10
18.375369
20
23.362755
70
0
0
VERTEX
8
Layer 1
10
17.025996
20
23.561192
70
0
0
VERTEX
8
Layer 1
10
15.676623
20
24.156504
70
0
0
VERTEX
8
Layer 1
10
15.174329
20
24.426048
70
0
0
VERTEX
8
Layer 1
10
14.694358
20
24.526920
70
0
0
VERTEX
8
Layer 1
10
14.009750
20
24.500462
70
0
0
VERTEX
8
Layer 1
10
13.480584
20
24.616217
70
0
0
VERTEX
8
Layer 1
10
13.258169
20
24.853928
70
0
0
VERTEX
8
Layer 1
10
13.189543
20
25.267753
70
0
0
VERTEX
8
Layer 1
10
13.268917
20
26.273168
70
0
0
VERTEX
8
Layer 1
10
11.734336
20
26.061501
70
0
0
VERTEX
8
Layer 1
10
11.363920
20
23.151089
70
0
0
VERTEX
8
Layer 1
10
17.369954
20
20.955050
70
0
0
VERTEX
8
Layer 1
10
18.375369
20
23.362755
70
0
0
SEQEND
8
Layer 1
0
POLYLINE
8
Layer 1
62
7
70
0
10
0.000000
20
0.000000
66
1
0
VERTEX
8
Layer 1
10
20.518492
20
23.521505
70
0
0
VERTEX
8
Layer 1
10
20.902550
20
23.195323
70
0
0
VERTEX
8
Layer 1
10
21.408152
20
22.559084
70
0
0
VERTEX
8
Layer 1
10
21.839340
20
21.530931
70
0
0
VERTEX
8
Layer 1
10
22.000156
20
20.029009
70
0
0
VERTEX
8
Layer 1
10
22.018243
20
17.625231
70
0
0
VERTEX
8
Layer 1
10
22.164694
20
15.850251
70
0
0
VERTEX
8
Layer 1
10
22.399201
20
14.583767
70
0
0
VERTEX
8
Layer 1
10
22.681458
20
13.705475
70
0
0
VERTEX
8
Layer 1
10
23.227987
20
12.632261
70
0
0
VERTEX
8
Layer 1
10
23.411645
20
12.196732
70
0
0
VERTEX
8
Layer 1
10
23.481821
20
11.668186
70
0
0
VERTEX
8
Layer 1
10
23.382913
20
11.455486
70
0
0
VERTEX
8
Layer 1
10
23.122154
20
11.355648
70
0
0
VERTEX
8
Layer 1
10
22.330885
20
11.390374
70
0
0
VERTEX
8
Layer 1
10
21.179949
20
11.668186
70
0
0
VERTEX
8
Layer 1
10
20.386200
20
15.769223
70
0
0
VERTEX
8
Layer 1
10
20.518492
20
23.521505
70
0
0
SEQEND
8
Layer 1
0
POLYLINE
8
Layer 1
62
7
70
0
10
0.000000
20
0.000000
66
1
0
VERTEX
8
Layer 1
10
8.136007
20
17.568387
70
0
0
VERTEX
8
Layer 1
10
8.407205
20
17.151669
70
0
0
VERTEX
8
Layer 1
10
8.701553
20
17.002841
70
0
0
VERTEX
8
Layer 1
10
9.194339
20
17.012763
70
0
0
VERTEX
8
Layer 1
10
11.019962
20
17.409637
70
0
0
VERTEX
8
Layer 1
10
12.490878
20
17.436923
70
0
0
VERTEX
8
Layer 1
10
14.433083
20
17.092138
70
0
0
VERTEX
8
Layer 1
10
15.075523
20
17.043769
70
0
0
VERTEX
8
Layer 1
10
15.405425
20
17.221122
70
0
0
VERTEX
8
Layer 1
10
15.544331
20
17.568387
70
0
0
VERTEX
8
Layer 1
10
11.363920
20
19.870259
70
0
0
VERTEX
8
Layer 1
10
8.136007
20
17.568387
70
0
0
SEQEND
8
Layer 1
0
POLYLINE
8
Layer 1
62
7
70
0
10
0.000000
20
0.000000
66
1
0
VERTEX
8
Layer 1
10
7.739133
20
11.641728
70
0
0
VERTEX
8
Layer 1
10
8.049036
20
10.023586
70
0
0
VERTEX
8
Layer 1
10
8.749923
20
8.658141
70
0
0
VERTEX
8
Layer 1
10
9.766448
20
7.569889
70
0
0
VERTEX
8
Layer 1
10
11.023269
20
6.783323
70
0
0
VERTEX
8
Layer 1
10
12.445041
20
6.322938
70
0
0
VERTEX
8
Layer 1
10
13.956420
20
6.213229
70
0
0
VERTEX
8
Layer 1
10
15.482061
20
6.478690
70
0
0
VERTEX
8
Layer 1
10
16.946621
20
7.143817
70
0
0
VERTEX
8
Layer 1
10
17.220299
20
7.219471
70
0
0
VERTEX
8
Layer 1
10
17.409641
20
7.133895
70
0
0
VERTEX
8
Layer 1
10
17.460078
20
6.954061
70
0
0
VERTEX
8
Layer 1
10
17.317037
20
6.746942
70
0
0
VERTEX
8
Layer 1
10
16.019857
20
5.889942
70
0
0
VERTEX
8
Layer 1
10
14.708414
20
5.377725
70
0
0
VERTEX
8
Layer 1
10
13.413095
20
5.173087
70
0
0
VERTEX
8
Layer 1
10
12.164283
20
5.238819
70
0
0
VERTEX
8
Layer 1
10
10.992367
20
5.537716
70
0
0
VERTEX
8
Layer 1
10
9.927730
20
6.032568
70
0
0
VERTEX
8
Layer 1
10
9.000760
20
6.686171
70
0
0
VERTEX
8
Layer 1
10
8.241840
20
7.461317
70
0
0
VERTEX
8
Layer 1
10
7.628339
20
8.430765
70
0
0
VERTEX
8
Layer 1
10
7.223196
20
9.501913
70
0
0
VERTEX
8
Layer 1
10
7.036334
20
10.597865
70
0
0
VERTEX
8
Layer 1
10
7.077675
20
11.641728
70
0
0
VERTEX
8
Layer 1
10
7.210794
20
11.887294
70
0
0
VERTEX
8
Layer 1
10
7.428248
20
11.959228
70
0
0
VERTEX
8
Layer 1
10
7.635780
20
11.872411
70
0
0
VERTEX
8
Layer 1
10
7.739133
20
11.641728
70
0
0
VERTEX
8
Layer 1
10
7.739133
20
11.641728
70
0
0
SEQEND
8
Layer 1
0
POLYLINE
8
Layer 1
62
7
70
0
10
0.000000
20
0.000000
66
1
0
VERTEX
8
Layer 1
10
13.454126
20
18.203386
70
0
0
VERTEX
8
Layer 1
10
13.622797
20
17.614689
70
0
0
VERTEX
8
Layer 1
10
13.904330
20
17.280653
70
0
0
VERTEX
8
Layer 1
10
14.406624
20
17.065680
70
0
0
VERTEX
8
Layer 1
10
15.056920
20
16.827968
70
0
0
VERTEX
8
Layer 1
10
16.275242
20
16.096644
70
0
0
VERTEX
8
Layer 1
10
17.677118
20
14.725360
70
0
0
VERTEX
8
Layer 1
10
18.326742
20
13.754000
70
0
0
VERTEX
8
Layer 1
10
18.878077
20
12.567768
70
0
0
VERTEX
8
Layer 1
10
19.335723
20
11.826109
70
0
0
VERTEX
8
Layer 1
10
19.939716
20
11.377145
70
0
0
VERTEX
8
Layer 1
10
21.021199
20
11.059645
70
0
0
VERTEX
8
Layer 1
10
21.630981
20
11.091478
70
0
0
VERTEX
8
Layer 1
10
22.565703
20
11.036494
70
0
0
VERTEX
8
Layer 1
10
23.554995
20
10.609441
70
0
0
VERTEX
8
Layer 1
10
23.985614
20
10.167246
70
0
0
VERTEX
8
Layer 1
10
24.328487
20
9.525064
70
0
0
VERTEX
8
Layer 1
10
24.596377
20
9.353085
70
0
0
VERTEX
8
Layer 1
10
24.725361
20
9.577981
70
0
0
VERTEX
8
Layer 1
10
24.574880
20
10.254321
70
0
0
VERTEX
8
Layer 1
10
24.235883
20
10.960427
70
0
0
VERTEX
8
Layer 1
10
23.579386
20
11.557392
70
0
0
VERTEX
8
Layer 1
10
22.476406
20
11.906311
70
0
0
VERTEX
8
Layer 1
10
22.191979
20
12.022066
70
0
0
VERTEX
8
Layer 1
10
22.026615
20
12.276727
70
0
0
VERTEX
8
Layer 1
10
21.494142
20
13.698861
70
0
0
VERTEX
8
Layer 1
10
21.234106
20
14.196608
70
0
0
VERTEX
8
Layer 1
10
20.941824
20
14.446308
70
0
0
VERTEX
8
Layer 1
10
17.730448
20
16.533206
70
0
0
VERTEX
8
Layer 1
10
14.856415
20
18.520886
70
0
0
VERTEX
8
Layer 1
10
13.454126
20
18.203386
70
0
0
SEQEND
8
Layer 1
0
POLYLINE
8
Layer 1
62
7
70
0
10
0.000000
20
0.000000
66
1
0
VERTEX
8
Layer 1
10
20.835991
20
20.955050
70
0
0
VERTEX
8
Layer 1
10
21.127033
20
21.444528
70
0
0
VERTEX
8
Layer 1
10
21.179949
20
22.172131
70
0
0
VERTEX
8
Layer 1
10
20.835991
20
23.442130
70
0
0
VERTEX
8
Layer 1
10
20.783075
20
23.743093
70
0
0
VERTEX
8
Layer 1
10
20.968283
20
24.182962
70
0
0
VERTEX
8
Layer 1
10
21.037736
20
24.583144
70
0
0
VERTEX
8
Layer 1
10
20.890148
20
24.677815
70
0
0
VERTEX
8
Layer 1
10
20.650783
20
24.606295
70
0
0
VERTEX
8
Layer 1
10
19.585372
20
24.005092
70
0
0
VERTEX
8
Layer 1
10
18.631271
20
23.641394
70
0
0
VERTEX
8
Layer 1
10
17.788171
20
23.472412
70
0
0
VERTEX
8
Layer 1
10
17.055762
20
23.455359
70
0
0
VERTEX
8
Layer 1
10
15.921775
20
23.705886
70
0
0
VERTEX
8
Layer 1
10
15.226832
20
24.050671
70
0
0
VERTEX
8
Layer 1
10
14.350401
20
24.239186
70
0
0
VERTEX
8
Layer 1
10
13.374751
20
24.288795
70
0
0
VERTEX
8
Layer 1
10
13.006608
20
24.366103
70
0
0
VERTEX
8
Layer 1
10
12.751327
20
24.555032
70
0
0
VERTEX
8
Layer 1
10
12.554543
20
25.128846
70
0
0
VERTEX
8
Layer 1
10
12.734791
20
25.732426
70
0
0
VERTEX
8
Layer 1
10
13.242459
20
26.087960
70
0
0
VERTEX
8
Layer 1
10
13.841078
20
26.116899
70
0
0
VERTEX
8
Layer 1
10
14.360322
20
26.021814
70
0
0
VERTEX
8
Layer 1
10
14.849801
20
25.946573
70
0
0
VERTEX
8
Layer 1
10
15.359123
20
26.035043
70
0
0
VERTEX
8
Layer 1
10
16.023888
20
26.369079
70
0
0
VERTEX
8
Layer 1
10
16.867246
20
26.643584
70
0
0
VERTEX
8
Layer 1
10
17.052454
20
26.785797
70
0
0
VERTEX
8
Layer 1
10
16.920163
20
26.908167
70
0
0
VERTEX
8
Layer 1
10
16.205789
20
26.855251
70
0
0
VERTEX
8
Layer 1
10
16.125174
20
27.812297
70
0
0
VERTEX
8
Layer 1
10
15.818836
20
28.618035
70
0
0
VERTEX
8
Layer 1
10
15.487694
20
29.448577
70
0
0
VERTEX
8
Layer 1
10
15.332665
20
30.480038
70
0
0
VERTEX
8
Layer 1
10
15.236754
20
30.648709
70
0
0
VERTEX
8
Layer 1
10
15.120998
20
30.559413
70
0
0
VERTEX
8
Layer 1
10
14.985400
20
29.864882
70
0
0
VERTEX
8
Layer 1
10
15.147457
20
28.733790
70
0
0
VERTEX
8
Layer 1
10
14.484759
20
28.324513
70
0
0
VERTEX
8
Layer 1
10
13.913839
20
28.138478
70
0
0
VERTEX
8
Layer 1
10
13.417332
20
28.011974
70
0
0
VERTEX
8
Layer 1
10
12.977876
20
27.781291
70
0
0
VERTEX
8
Layer 1
10
12.915038
20
27.615927
70
0
0
VERTEX
8
Layer 1
10
13.030793
20
27.569625
70
0
0
VERTEX
8
Layer 1
10
14.036208
20
27.754833
70
0
0
VERTEX
8
Layer 1
10
14.251182
20
27.708531
70
0
0
VERTEX
8
Layer 1
10
14.327249
20
27.543166
70
0
0
VERTEX
8
Layer 1
10
14.089125
20
27.119833
70
0
0
VERTEX
8
Layer 1
10
14.099047
20
26.888323
70
0
0
VERTEX
8
Layer 1
10
14.327249
20
26.934625
70
0
0
VERTEX
8
Layer 1
10
14.588525
20
27.391031
70
0
0
VERTEX
8
Layer 1
10
14.807220
20
27.663882
70
0
0
VERTEX
8
Layer 1
10
15.068082
20
27.807749
70
0
0
VERTEX
8
Layer 1
10
15.349201
20
27.794520
70
0
0
VERTEX
8
Layer 1
10
15.570790
20
27.543166
70
0
0
VERTEX
8
Layer 1
10
15.677450
20
27.036324
70
0
0
VERTEX
8
Layer 1
10
15.590633
20
26.742803
70
0
0
VERTEX
8
Layer 1
10
15.015165
20
26.537751
70
0
0
VERTEX
8
Layer 1
10
13.983292
20
26.670042
70
0
0
VERTEX
8
Layer 1
10
13.057251
20
26.431918
70
0
0
VERTEX
8
Layer 1
10
12.289960
20
26.987542
70
0
0
VERTEX
8
Layer 1
10
12.151054
20
27.222359
70
0
0
VERTEX
8
Layer 1
10
12.210585
20
27.516708
70
0
0
VERTEX
8
Layer 1
10
13.877458
20
30.268371
70
0
0
VERTEX
8
Layer 1
10
13.970062
20
30.648709
70
0
0
VERTEX
8
Layer 1
10
13.824542
20
31.009204
70
0
0
VERTEX
8
Layer 1
10
12.270117
20
29.137279
70
0
0
VERTEX
8
Layer 1
10
10.755379
20
27.146292
70
0
0
VERTEX
8
Layer 1
10
12.395794
20
23.468588
70
0
0
VERTEX
8
Layer 1
10
20.835991
20
20.955050
70
0
0
SEQEND
8
Layer 1
 0 
ENDSEC
 0 
EOF