999
"DXF R12 Output" (www.mydxf.blogspot.com)
 0 
SECTION
 2 
HEADER
 9 
$ACADVER
 1 
AC1009
 9 
$EXTMIN
 10 
 0 
 20 
 0 
 9 
$EXTMAX
 10 
 8.5 
 20 
 11 
 0 
ENDSEC
 0 
SECTION
 2 
ENTITIES
0
POLYLINE
8
Layer 1
62
7
70
1
10
0.000000
20
0.000000
66
1
0
VERTEX
8
Layer 1
10
9.372243
20
12.324338
70
0
0
VERTEX
8
Layer 1
10
8.625819
20
13.500663
70
0
0
VERTEX
8
Layer 1
10
8.159312
20
14.687903
70
0
0
VERTEX
8
Layer 1
10
7.926213
20
15.856043
70
0
0
VERTEX
8
Layer 1
10
7.880015
20
16.975069
70
0
0
VERTEX
8
Layer 1
10
8.162288
20
18.945726
70
0
0
VERTEX
8
Layer 1
10
8.634066
20
20.359764
70
0
0
VERTEX
8
Layer 1
10
8.576851
20
20.594914
70
0
0
VERTEX
8
Layer 1
10
8.335092
20
20.605828
70
0
0
VERTEX
8
Layer 1
10
7.390461
20
19.903728
70
0
0
VERTEX
8
Layer 1
10
6.246899
20
18.870485
70
0
0
VERTEX
8
Layer 1
10
5.112267
20
17.532143
70
0
0
VERTEX
8
Layer 1
10
4.194425
20
15.914747
70
0
0
VERTEX
8
Layer 1
10
3.449221
20
13.822505
70
0
0
VERTEX
8
Layer 1
10
3.171826
20
12.150705
70
0
0
VERTEX
8
Layer 1
10
3.293284
20
10.716534
70
0
0
VERTEX
8
Layer 1
10
3.744640
20
9.337182
70
0
0
VERTEX
8
Layer 1
10
3.929226
20
8.642689
70
0
0
VERTEX
8
Layer 1
10
3.850141
20
8.218321
70
0
0
VERTEX
8
Layer 1
10
3.629672
20
7.998840
70
0
0
VERTEX
8
Layer 1
10
3.390104
20
7.919010
70
0
0
VERTEX
8
Layer 1
10
3.004810
20
7.995408
70
0
0
VERTEX
8
Layer 1
10
2.673094
20
8.244448
70
0
0
VERTEX
8
Layer 1
10
1.945831
20
9.167517
70
0
0
VERTEX
8
Layer 1
10
1.498361
20
10.255289
70
0
0
VERTEX
8
Layer 1
10
1.341929
20
10.404449
70
0
0
VERTEX
8
Layer 1
10
1.143825
20
10.329373
70
0
0
VERTEX
8
Layer 1
10
0.655304
20
9.462529
70
0
0
VERTEX
8
Layer 1
10
0.301471
20
8.466699
70
0
0
VERTEX
8
Layer 1
10
0.000842
20
6.500838
70
0
0
VERTEX
8
Layer 1
10
0.116079
20
5.190665
70
0
0
VERTEX
8
Layer 1
10
0.486676
20
3.970378
70
0
0
VERTEX
8
Layer 1
10
1.084481
20
2.866115
70
0
0
VERTEX
8
Layer 1
10
1.881340
20
1.904015
70
0
0
VERTEX
8
Layer 1
10
2.849101
20
1.110216
70
0
0
VERTEX
8
Layer 1
10
3.959611
20
0.510855
70
0
0
VERTEX
8
Layer 1
10
5.184717
20
0.132070
70
0
0
VERTEX
8
Layer 1
10
6.496265
20
0.000000
70
0
0
VERTEX
8
Layer 1
10
8.125232
20
0.223036
70
0
0
VERTEX
8
Layer 1
10
9.584444
20
0.846670
70
0
0
VERTEX
8
Layer 1
10
10.819239
20
1.802688
70
0
0
VERTEX
8
Layer 1
10
11.774955
20
3.022876
70
0
0
VERTEX
8
Layer 1
10
12.396928
20
4.439023
70
0
0
VERTEX
8
Layer 1
10
12.630497
20
5.982914
70
0
0
VERTEX
8
Layer 1
10
12.420998
20
7.586336
70
0
0
VERTEX
8
Layer 1
10
11.713770
20
9.181077
70
0
0
VERTEX
8
Layer 1
10
10.589638
20
10.785450
70
0
0
VERTEX
8
Layer 1
10
9.372243
20
12.324338
70
0
0
VERTEX
8
Layer 1
10
9.372243
20
12.324338
70
0
0
SEQEND
8
Layer 1
 0 
ENDSEC
 0 
EOF