999
"DXF R12 Output" (www.mydxf.blogspot.com)
 0 
SECTION
 2 
HEADER
 9 
$ACADVER
 1 
AC1009
 9 
$EXTMIN
 10 
 0 
 20 
 0 
 9 
$EXTMAX
 10 
 8.5 
 20 
 11 
 0 
ENDSEC
 0 
SECTION
 2 
ENTITIES
0
POLYLINE
8
Layer 1
62
7
70
0
10
0.000000
20
0.000000
66
1
0
VERTEX
8
Layer 1
10
20.171669
20
13.369549
70
0
0
VERTEX
8
Layer 1
10
19.425235
20
14.545869
70
0
0
VERTEX
8
Layer 1
10
18.958721
20
15.733102
70
0
0
VERTEX
8
Layer 1
10
18.725620
20
16.901236
70
0
0
VERTEX
8
Layer 1
10
18.679421
20
18.020257
70
0
0
VERTEX
8
Layer 1
10
18.961698
20
19.990904
70
0
0
VERTEX
8
Layer 1
10
19.433482
20
21.404935
70
0
0
VERTEX
8
Layer 1
10
19.376266
20
21.640083
70
0
0
VERTEX
8
Layer 1
10
19.134504
20
21.650997
70
0
0
VERTEX
8
Layer 1
10
18.189860
20
20.948902
70
0
0
VERTEX
8
Layer 1
10
17.046282
20
19.915664
70
0
0
VERTEX
8
Layer 1
10
15.911635
20
18.577328
70
0
0
VERTEX
8
Layer 1
10
14.993780
20
16.959941
70
0
0
VERTEX
8
Layer 1
10
14.248565
20
14.867710
70
0
0
VERTEX
8
Layer 1
10
13.971166
20
13.195917
70
0
0
VERTEX
8
Layer 1
10
14.092627
20
11.761754
70
0
0
VERTEX
8
Layer 1
10
14.543989
20
10.382408
70
0
0
VERTEX
8
Layer 1
10
14.728577
20
9.687919
70
0
0
VERTEX
8
Layer 1
10
14.649491
20
9.263553
70
0
0
VERTEX
8
Layer 1
10
14.429019
20
9.044073
70
0
0
VERTEX
8
Layer 1
10
14.189447
20
8.964244
70
0
0
VERTEX
8
Layer 1
10
13.804148
20
9.040642
70
0
0
VERTEX
8
Layer 1
10
13.472427
20
9.289681
70
0
0
VERTEX
8
Layer 1
10
12.745155
20
10.212745
70
0
0
VERTEX
8
Layer 1
10
12.297679
20
11.300511
70
0
0
VERTEX
8
Layer 1
10
12.141244
20
11.449670
70
0
0
VERTEX
8
Layer 1
10
11.943138
20
11.374595
70
0
0
VERTEX
8
Layer 1
10
11.454610
20
10.507755
70
0
0
VERTEX
8
Layer 1
10
11.100772
20
9.511930
70
0
0
VERTEX
8
Layer 1
10
10.800139
20
7.546079
70
0
0
VERTEX
8
Layer 1
10
10.915377
20
6.235912
70
0
0
VERTEX
8
Layer 1
10
11.285980
20
5.015632
70
0
0
VERTEX
8
Layer 1
10
11.883793
20
3.911375
70
0
0
VERTEX
8
Layer 1
10
12.680663
20
2.949280
70
0
0
VERTEX
8
Layer 1
10
13.648437
20
2.155484
70
0
0
VERTEX
8
Layer 1
10
14.758962
20
1.556126
70
0
0
VERTEX
8
Layer 1
10
15.984085
20
1.177343
70
0
0
VERTEX
8
Layer 1
10
17.295652
20
1.045274
70
0
0
VERTEX
8
Layer 1
10
18.924641
20
1.268309
70
0
0
VERTEX
8
Layer 1
10
20.383873
20
1.891940
70
0
0
VERTEX
8
Layer 1
10
21.618685
20
2.847953
70
0
0
VERTEX
8
Layer 1
10
22.574413
20
4.068135
70
0
0
VERTEX
8
Layer 1
10
23.196395
20
5.484274
70
0
0
VERTEX
8
Layer 1
10
23.429967
20
7.028157
70
0
0
VERTEX
8
Layer 1
10
23.220466
20
8.631572
70
0
0
VERTEX
8
Layer 1
10
22.513229
20
10.226304
70
0
0
VERTEX
8
Layer 1
10
21.389082
20
11.830669
70
0
0
VERTEX
8
Layer 1
10
20.171669
20
13.369549
70
0
0
VERTEX
8
Layer 1
10
20.171669
20
13.369549
70
0
0
SEQEND
8
Layer 1
 0 
ENDSEC
 0 
EOF