999
"DXF R12 Output" (www.mydxf.blogspot.com)
 0 
SECTION
 2 
HEADER
 9 
$ACADVER
 1 
AC1009
 9 
$EXTMIN
 10 
 0 
 20 
 0 
 9 
$EXTMAX
 10 
 8.5 
 20 
 11 
 0 
ENDSEC
 0 
SECTION
 2 
ENTITIES
0
POLYLINE
8
Layer 1
62
7
70
0
10
0.000000
20
0.000000
66
1
0
VERTEX
8
Layer 1
10
9.408571
20
23.090234
70
0
0
VERTEX
8
Layer 1
10
9.342426
20
20.107723
70
0
0
VERTEX
8
Layer 1
10
9.571538
20
18.593398
70
0
0
VERTEX
8
Layer 1
10
10.101779
20
17.422867
70
0
0
VERTEX
8
Layer 1
10
10.094544
20
17.972827
70
0
0
VERTEX
8
Layer 1
10
10.379260
20
19.477023
70
0
0
VERTEX
8
Layer 1
10
10.774734
20
20.518669
70
0
0
VERTEX
8
Layer 1
10
11.415558
20
21.716925
70
0
0
VERTEX
8
Layer 1
10
12.359184
20
23.044475
70
0
0
VERTEX
8
Layer 1
10
13.663066
20
24.474004
70
0
0
VERTEX
8
Layer 1
10
14.645620
20
25.748053
70
0
0
VERTEX
8
Layer 1
10
15.191364
20
27.131740
70
0
0
VERTEX
8
Layer 1
10
15.328823
20
28.521379
70
0
0
VERTEX
8
Layer 1
10
15.086523
20
29.813288
70
0
0
VERTEX
8
Layer 1
10
14.450531
20
31.054844
70
0
0
VERTEX
8
Layer 1
10
13.673649
20
32.006682
70
0
0
VERTEX
8
Layer 1
10
13.544624
20
32.265146
70
0
0
VERTEX
8
Layer 1
10
13.582038
20
32.530556
70
0
0
VERTEX
8
Layer 1
10
13.755877
20
32.734450
70
0
0
VERTEX
8
Layer 1
10
14.036128
20
32.808368
70
0
0
VERTEX
8
Layer 1
10
16.233035
20
32.557345
70
0
0
VERTEX
8
Layer 1
10
17.440521
20
32.253240
70
0
0
VERTEX
8
Layer 1
10
18.657401
20
31.780463
70
0
0
VERTEX
8
Layer 1
10
19.836206
20
31.101808
70
0
0
VERTEX
8
Layer 1
10
20.929466
20
30.180067
70
0
0
VERTEX
8
Layer 1
10
21.889711
20
28.978033
70
0
0
VERTEX
8
Layer 1
10
22.669471
20
27.458500
70
0
0
VERTEX
8
Layer 1
10
23.128523
20
25.962283
70
0
0
VERTEX
8
Layer 1
10
23.341512
20
24.444238
70
0
0
VERTEX
8
Layer 1
10
23.336221
20
22.907341
70
0
0
VERTEX
8
Layer 1
10
23.140429
20
21.354570
70
0
0
VERTEX
8
Layer 1
10
22.900651
20
20.119670
70
0
0
VERTEX
8
Layer 1
10
22.750169
20
18.670706
70
0
0
VERTEX
8
Layer 1
10
22.807633
20
17.989431
70
0
0
VERTEX
8
Layer 1
10
23.006484
20
17.402816
70
0
0
VERTEX
8
Layer 1
10
23.386409
20
16.960255
70
0
0
VERTEX
8
Layer 1
10
23.987095
20
16.711138
70
0
0
VERTEX
8
Layer 1
10
24.892878
20
16.744707
70
0
0
VERTEX
8
Layer 1
10
25.564009
20
17.130502
70
0
0
VERTEX
8
Layer 1
10
26.032735
20
17.712750
70
0
0
VERTEX
8
Layer 1
10
26.331300
20
18.335678
70
0
0
VERTEX
8
Layer 1
10
26.684849
20
18.631019
70
0
0
VERTEX
8
Layer 1
10
27.119758
20
18.483844
70
0
0
VERTEX
8
Layer 1
10
27.895875
20
17.470357
70
0
0
VERTEX
8
Layer 1
10
28.489305
20
16.423322
70
0
0
VERTEX
8
Layer 1
10
28.917041
20
15.353342
70
0
0
VERTEX
8
Layer 1
10
29.196073
20
14.271022
70
0
0
VERTEX
8
Layer 1
10
29.375989
20
12.111776
70
0
0
VERTEX
8
Layer 1
10
29.164984
20
10.030418
70
0
0
VERTEX
8
Layer 1
10
28.621473
20
8.154596
70
0
0
VERTEX
8
Layer 1
10
27.723503
20
6.438951
70
0
0
VERTEX
8
Layer 1
10
26.522172
20
4.911202
70
0
0
VERTEX
8
Layer 1
10
25.068578
20
3.599066
70
0
0
VERTEX
8
Layer 1
10
23.413818
20
2.530265
70
0
0
VERTEX
8
Layer 1
10
21.608990
20
1.732516
70
0
0
VERTEX
8
Layer 1
10
19.705191
20
1.233539
70
0
0
VERTEX
8
Layer 1
10
17.753519
20
1.061054
70
0
0
VERTEX
8
Layer 1
10
15.374086
20
1.234666
70
0
0
VERTEX
8
Layer 1
10
13.148907
20
1.749962
70
0
0
VERTEX
8
Layer 1
10
11.107468
20
2.598632
70
0
0
VERTEX
8
Layer 1
10
9.279257
20
3.772368
70
0
0
VERTEX
8
Layer 1
10
7.693758
20
5.262859
70
0
0
VERTEX
8
Layer 1
10
6.380460
20
7.061796
70
0
0
VERTEX
8
Layer 1
10
5.368849
20
9.160870
70
0
0
VERTEX
8
Layer 1
10
4.688411
20
11.551770
70
0
0
VERTEX
8
Layer 1
10
4.483566
20
14.031698
70
0
0
VERTEX
8
Layer 1
10
4.587347
20
15.522360
70
0
0
VERTEX
8
Layer 1
10
4.877257
20
17.113635
70
0
0
VERTEX
8
Layer 1
10
5.389788
20
18.755636
70
0
0
VERTEX
8
Layer 1
10
6.161435
20
20.398474
70
0
0
VERTEX
8
Layer 1
10
7.228692
20
21.992261
70
0
0
VERTEX
8
Layer 1
10
8.628052
20
23.487109
70
0
0
VERTEX
8
Layer 1
10
8.887674
20
23.605923
70
0
0
VERTEX
8
Layer 1
10
9.151265
20
23.556562
70
0
0
VERTEX
8
Layer 1
10
9.348379
20
23.373256
70
0
0
VERTEX
8
Layer 1
10
9.408571
20
23.090234
70
0
0
VERTEX
8
Layer 1
10
9.408571
20
23.090234
70
0
0
SEQEND
8
Layer 1
 0 
ENDSEC
 0 
EOF